<?xml version="1.0" encoding="utf-8"?>
<!-- Generator: Adobe Illustrator 25.0.1, SVG Export Plug-In . SVG Version: 6.00 Build 0)  -->
<svg version="1.0" id="Layer_1" xmlns="http://www.w3.org/2000/svg" xmlns:xlink="http://www.w3.org/1999/xlink" x="0px" y="0px"
	 viewBox="0 0 1027.6 800" style="enable-background:new 0 0 1027.6 800;" xml:space="preserve">
<style type="text/css">
	.st0{fill:#BAD8EB;}
	.st1{fill:#DEEDF3;}
	.st2{fill:#FFE066;}
	.st3{fill:#50B475;}
	.st4{fill:#FFE688;}
	.st5{fill:#89C699;}
	.st6{fill:#2F3039;}
	.st7{fill:#F07E5E;}
	.st8{fill:#4B4953;}
	.st9{fill:#70BE87;}
	.st10{fill:#F29274;}
	.st11{fill:#FFDF5B;}
	.st12{fill:#EF7657;}
	.st13{fill:#D7E7F1;}
	.st14{fill:#35363E;}
	.st15{fill:#C3DCED;}
	.st16{fill:#C6DEEE;}
	.st17{fill:#E94B33;}
	.st18{fill:#FFFFFF;}
	.st19{fill:#FDC647;}
	.st20{fill:#FFDE54;}
	.st21{fill:#FFE377;}
	.st22{fill:#1E2129;}
	.st23{fill:#BA1716;}
	.st24{fill:#FFE892;}
	.st25{fill:#E30613;}
	.st26{fill:#FFDE52;}
	.st27{fill:#FFDF64;}
	.st28{fill:#A8CEE6;}
	.st29{fill:#A9CFE7;}
	.st30{fill:#FFDB2E;}
	.st31{fill:#FFD91E;}
	.st32{fill:#598FAA;}
	.st33{fill:#6094AF;}
	.st34{fill:#FFD600;}
	.st35{fill:#CD301F;}
	.st36{fill:#114D8B;}
	.st37{fill:#E84831;}
	.st38{fill:#AACFE7;}
	.st39{fill:#085FAA;}
	.st40{fill:#D2E5F0;}
	.st41{fill:#B9D7EB;}
	.st42{fill:#6698B3;}
	.st43{fill:#BDD9EC;}
	.st44{fill:#6799B4;}
	.st45{fill:#49839F;}
	.st46{fill:#C7DFEE;}
	.st47{fill:#E62A21;}
	.st48{fill:#E6F1F7;}
	.st49{fill:#DBEBF2;}
	.st50{fill:#004F9F;}
	.st51{fill:#CFE3F0;}
	.st52{fill:#CCA703;}
	.st53{fill:#AFD1E8;}
	.st54{fill:#C2DBED;}
	.st55{fill:#BFDAEC;}
	.st56{fill:#9BC3DF;}
	.st57{fill:#D3E6F0;}
	.st58{fill:#D3E5F0;}
	.st59{fill:#E5F0F6;}
	.st60{fill:#93BCD9;}
	.st61{fill:#94BCD8;}
	.st62{fill:#72A1BD;}
	.st63{fill:#73A1BD;}
	.st64{fill:#5F8FA8;}
	.st65{fill:#FBFDFE;}
	.st66{fill:#6491AA;}
	.st67{fill:#B7CCD9;}
	.st68{fill:#EBF4F9;}
	.st69{fill:#D0E4F0;}
	.st70{fill:#C4DCED;}
	.st71{fill:#DAE7EF;}
	.st72{fill:#C2DCED;}
	.st73{fill:#084584;}
	.st74{fill:#C9DFEE;}
	.st75{fill:#CAE0EE;}
	.st76{fill:#B5D5EA;}
	.st77{fill:#C5DDED;}
	.st78{fill:#B4D4EA;}
	.st79{fill:#0D4B8A;}
	.st80{fill:#ADC6D5;}
	.st81{fill:#055EAB;}
	.st82{fill:#EAF3F9;}
	.st83{fill:#ADB6BE;}
	.st84{fill:#7EB1D3;}
	.st85{fill:#272830;}
	.st86{fill:#DAEAF2;}
	.st87{fill:#99C1DC;}
	.st88{fill:#7FB1D3;}
	.st89{fill:#85B5D5;}
	.st90{fill:#169955;}
	.st91{fill:#E63827;}
	.st92{fill:#DBEAF2;}
	.st93{fill:#3BAE6B;}
	.st94{fill:#5BB77A;}
	.st95{fill:#E51E1C;}
	.st96{fill:#CDE2EF;}
	.st97{fill:#1CA75E;}
	.st98{fill:#ADD0E8;}
	.st99{fill:#ABCFE7;}
	.st100{fill:#118D4E;}
	.st101{fill:#B0D0E6;}
	.st102{fill:#DCEBF2;}
	.st103{fill:#B7D6EA;}
	.st104{fill:#E6251F;}
	.st105{fill:#A8C3D2;}
	.st106{fill:#CEDBE5;}
	.st107{fill:#ECF4F9;}
	.st108{fill:#20232B;}
	.st109{fill:#2FAB65;}
	.st110{fill:#065EAB;}
	.st111{fill:#4FB474;}
	.st112{fill:#159653;}
	.st113{fill:#BED9EC;}
	.st114{fill:#2D2E36;}
	.st115{fill:#FFDE5A;}
	.st116{fill:#FCBD33;}
	.st117{fill:#ACD0E7;}
	.st118{fill:#ACD0E8;}
	.st119{fill:#E63225;}
	.st120{fill:#A6CCE6;}
	.st121{fill:#B6CBD9;}
	.st122{fill:#D1E4F0;}
	.st123{fill:#A4CBE5;}
	.st124{fill:#FFD817;}
	.st125{fill:#3DAF6C;}
	.st126{fill:#FFDB34;}
	.st127{fill:#FFDE57;}
	.st128{fill:#C7DEED;}
	.st129{fill:#5CB77B;}
	.st130{fill:#FCBB2F;}
	.st131{fill:#3AA868;}
	.st132{fill:#CCAA24;}
	.st133{fill:#2D9059;}
	.st134{fill:#139352;}
	.st135{fill:#B4D0E4;}
	.st136{fill:#CBAE45;}
	.st137{fill:#96BEDC;}
	.st138{fill:#9DC5E0;}
	.st139{fill:#429164;}
	.st140{fill:#CE922E;}
	.st141{fill:#15844F;}
	.st142{fill:none;}
</style>
<path class="st0" d="M448,53.8c22.4-8,46.4-10.5,70.1-9.6c32.3,1.1,65,10.6,90.7,30.7c17.2,13.3,31.1,30.7,41.3,49.8l-0.1-0.4
	c1,2.3,2.3,4.4,3.1,6.7c-6.6-8.4-11-18.3-17.7-26.7c-8.1-10.7-17.6-20.4-28.3-28.6c-27.8-21.3-63.5-30.5-98.1-29.6
	c-33.4-0.8-67.7,7.7-95.1,27.3c-12.8,9.4-24,20.8-33.2,33.7c-1.2,1.7-2.8,3-4.6,4C393,84.5,418.3,64.2,448,53.8L448,53.8z"/>
<path class="st1" d="M414,73.5c27.4-19.6,61.7-28.1,95.1-27.3c34.6-0.9,70.3,8.3,98.1,29.6c10.6,8.2,20.2,17.9,28.3,28.6
	c6.7,8.4,11.1,18.3,17.7,26.7l0.5,0.5v0.4c0,1.3,0.1,2.6,0.5,3.8c9.3,19.8,14.7,41.3,18.4,62.8c1.8,11.2,2.9,22.5,3.3,33.8
	c1.3,10,0.7,20.1,0.7,30.2c-1,7.1-0.5,14.3-1.6,21.4c-3.7,39.1-14.3,78.6-37.3,110.9c-17.1,24.7-42.5,44-71.2,52.9
	c0-0.9,0.1-1.8,0.1-2.7c2.2-0.8,4.5-1.6,6.7-2.5c10.7-4.3,20.9-9.9,30.3-16.6c12.7-9.2,23.7-20.5,32.5-33.4
	c8.5-12.4,15.5-25.9,20.8-40c4.9-13.3,8.7-27.1,11.3-41.1c2.5-13.1,4-26.4,4.7-39.8c0.8-13.1,0.7-26.2,0.2-39.3
	c-0.7-13.4-1.7-26.9-4.7-40.1c-2.4-14.4-6.1-28.5-11.2-42.1c-5.3-14.5-12.5-28.3-21.2-41C626.5,96,615.1,84.4,602,75.1
	c-13.3-9.3-28.2-16.3-43.9-20.6c-16-4.3-32.6-6.4-49.1-6.3c-16.5-0.2-32.9,1.9-48.8,6.2c-31.7,8.4-59.3,27.9-77.8,54.8
	c-8.8,12.7-16,26.5-21.4,41c-5.2,13.5-9,27.6-11.3,41.9c-2.3,13.4-3.8,26.8-4.6,40.4c-0.6,13.1-0.5,26.2,0.1,39.4
	c0.6,13.3,2.2,26.6,4.8,39.6c2.6,14,6.4,27.8,11.4,41.2c5.2,14.1,12.2,27.4,20.7,39.8c8.9,12.9,19.9,24.2,32.5,33.5
	c9.6,7,20.1,12.8,31.2,17c2,0.8,4,1.4,6,2.1c-0.1,0.7-0.2,1.5-0.3,2.2c-4.1-0.2-7.6-2.3-11.4-3.7c-15.3-6.7-29.8-15.7-41.5-27.6
	c-26.6-25.2-42.1-60.1-49.8-95.4c-0.4-1-0.9-1.9-1.5-2.8c-2.8-11.2-4.1-22.9-5.3-34.4c-2.5-27.6-1.7-55.5,2.1-82.9
	c4.1-27.3,11.9-54.3,25.3-78.5c2.2-3.7,4.1-7.6,6.8-10.9c1.8-1,3.4-2.3,4.6-4C390,94.3,401.2,82.9,414,73.5z"/>
<path class="st2" d="M460.3,54.4c15.9-4.3,32.3-6.4,48.8-6.2c0,0.7,0,2,0,2.7c-6.2,1.6-12.6,0.4-18.9,1.5
	c-9.9,0.8-19.6,2.8-29.2,4.9l-0.1-0.4L460.3,54.4L460.3,54.4z"/>
<path class="st3" d="M509,48.2c16.6-0.1,33.1,2,49.1,6.3c-0.3,1.1-0.6,2.2-0.8,3.3c-15.8-4.2-32.1-6.2-48.4-5.8v-1.1
	C509,50.2,509,48.9,509,48.2L509,48.2z"/>
<path class="st4" d="M490.1,52.4c6.2-1.1,12.7,0.1,18.9-1.5V52c0,2.3,0,4.5,0,6.8c0,1.2,0,2.3,0,3.5c-15.4-0.9-30.7,2.3-45.7,5.3
	l-0.3-1.4c-0.7-3-1.4-5.9-2.1-8.9C470.6,55.2,480.3,53.2,490.1,52.4L490.1,52.4z"/>
<path class="st5" d="M509,52c16.3-0.3,32.6,1.7,48.4,5.9l-0.2,0.8c-0.4,1.7-0.8,3.5-1.2,5.2l-0.4,1.5c-8.1-2.1-16.2-3.7-24.5-4.7
	c-7.3-1.2-14.9-0.1-22.1-1.8C509,56.5,509,54.3,509,52L509,52z"/>
<path class="st6" d="M416,75.2c13.4-9.4,28.4-16.5,44.2-20.7l0.5,2.5c-4.4,2.1-8.9,3.9-13.5,5.2c-7.5,2.7-14.7,6.2-21.6,10.2
	c-2.8,1.8-5.2,4.1-8.5,4.9L416,75.2 M653.4,152.6c1.1-0.8,2.2-1.6,3.4-2.3c5.1,13.6,8.8,27.7,11.2,42.1c-1,0.2-2,0.4-3,0.7
	c-3,1.1-6,2.4-9,3.5c-19.2,7.5-38.5,14.9-57.7,22.4c-1.1-8.1-2-16.3-5.4-23.8l-0.1-0.3c16.4-11.2,32.5-22.7,48.8-34.1
	C645.6,158.1,649.6,155.4,653.4,152.6L653.4,152.6z"/>
<path class="st7" d="M558.2,54.5c15.7,4.3,30.5,11.3,43.9,20.6c-0.7,1.2-1.3,2.3-2,3.5c-8-5.5-16.4-10.3-25.2-14.2
	c-5.9-2-11.7-4.3-17.7-5.9l0.2-0.8C557.6,56.7,557.8,55.6,558.2,54.5L558.2,54.5z"/>
<path class="st8" d="M460.8,56.9l0.1,0.4c0.7,3,1.4,5.9,2.1,8.9c-11.4,1.8-21.6,7.5-31.8,12.6c-3.5,1.8-6.2,5.2-10.4,5.6
	c-1-1.9-2-3.8-3-5.8l-0.7-1.3c3.3-0.8,5.7-3.1,8.5-4.9c6.9-4.1,14.1-7.5,21.6-10.2C451.9,60.8,456.4,59,460.8,56.9z"/>
<path class="st9" d="M509,58.8c7.3,1.7,14.8,0.6,22.1,1.8c8.3,1,16.4,2.6,24.5,4.7c-0.4,1.7-0.8,3.4-1.2,5s-0.8,3.3-1.2,5
	c-1.3-0.7-2.7-1.4-4-2.1c-3.6-1.8-7.3-3.3-11.1-4.5c-9.4-2.8-19.3-3.8-29-3.9c0-0.6,0-1.9,0-2.5C509,61.2,509,60,509,58.8L509,58.8z
	"/>
<path class="st10" d="M557.2,58.6c6,1.6,11.8,3.9,17.7,5.9c8.8,3.9,17.3,8.7,25.2,14.2l-0.4,0.7c-0.8,1.4-1.5,2.9-2.3,4.4
	c-7.2-5.2-15.1-9.5-23.3-12.9c-5.8-2.8-12.3-4.2-18.1-7.1C556.3,62,556.7,60.3,557.2,58.6L557.2,58.6z"/>
<path class="st11" d="M463.3,67.6c15-3,30.3-6.2,45.7-5.3c0,0.6,0,1.9,0,2.5c-9.4,0.1-18.9,0.9-27.9,3.5c-4.2,1.2-8.3,2.8-12.2,4.8
	c-1.3,0.6-2.6,1.3-3.8,1.9C464.5,72.6,463.9,70.1,463.3,67.6z"/>
<path class="st12" d="M555.9,63.8c5.8,2.9,12.3,4.2,18.1,7.1c8.3,3.4,16.1,7.7,23.3,12.9l-0.7,1.4c-0.8,1.5-1.5,3-2.3,4.5
	c-11.6-9.4-25.8-15-40-19.3c0.4-1.7,0.8-3.4,1.2-5L555.9,63.8L555.9,63.8z"/>
<path class="st13" d="M509,64.9c9.8,0.2,19.6,1.1,29,3.9l-1.5,1.3c-1.2,8.7,0.1,17.4,0.1,26.1c-17.9-5.2-36.9-5.2-54.8-0.2
	c-1.1-9.2,0.1-18.4-0.7-27.6C490.2,65.8,499.6,65,509,64.9L509,64.9z"/>
<path class="st14" d="M431.2,78.7c10.2-5,20.4-10.8,31.8-12.6l0.3,1.4c0.6,2.5,1.2,5,1.8,7.5c-2.2,1.2-4.3,2.6-6.4,4
	c-1.2-0.1-2.5-0.5-3.7,0.3c-5.9,2.9-11,7.2-17,10c-4,1.8-7.2,4.8-11.1,6.7c-0.8-1.5-1.6-3.1-2.4-4.6c-1.2-2.3-2.4-4.7-3.6-7
	l-0.1-0.2C425,83.9,427.7,80.5,431.2,78.7L431.2,78.7z"/>
<path class="st15" d="M468.9,73.2c3.9-2,8-3.6,12.2-4.8c0.8,9.2-0.5,18.5,0.7,27.6c-2.5,0.8-4.9,1.6-7.3,2.6
	C472.4,90.2,470.9,81.6,468.9,73.2L468.9,73.2z"/>
<path class="st16" d="M538.1,68.8c3.8,1.2,7.6,2.7,11.1,4.5c-2,8.4-3.6,17-5.5,25.4c-2.3-0.9-4.6-1.7-7-2.5c0-8.7-1.3-17.4-0.1-26.1
	L538.1,68.8L538.1,68.8z"/>
<path class="st17" d="M554.4,70.4c14.2,4.3,28.4,9.9,40,19.3l-0.5,1l-2.1,4.1c-7.3-4.5-14.5-9.7-22.9-12c-3-1.5-5.9-4.5-9.6-3.6
	c-2-1.4-4-2.7-6.1-3.8C553.6,73.6,554,72,554.4,70.4 M348.6,233c1.9,0.2,3.7,0.4,5.6,0.6c-0.4,12.2-0.5,24.3,0.1,36.5l2.4,0.5
	l0.2,0.2c-2.4,0.2-4.7,0.4-7.1,0.7l-1.7,0.2C349,258.8,347.9,245.9,348.6,233 M385.6,388.8c1.4-1.5,2.8-3,4.2-4.5
	c0.8,5,5.4,7.8,8.2,11.6c4.3,5.7,10.1,9.9,14.9,15.1c2.1,2,4.5,3.6,7.2,4.7c-1.1,2.1-2.2,4.1-3.3,6.2l-0.2-0.2
	c-4.5-4.7-10.1-8.2-14.6-12.9C395.8,402.8,389.7,396.5,385.6,388.8L385.6,388.8z"/>
<path class="st18" d="M465.1,75.1c1.2-0.7,2.5-1.3,3.8-1.9c2,8.4,3.5,17,5.6,25.4c-5.8,2.4-11.5,5.5-16,9.9
	c-0.8-1.1-1.4-2.3-1.8-3.5c-1.8-6.2-3.2-12.6-5-18.8c2-2.7,4.4-5,7-7.1C460.8,77.7,462.9,76.3,465.1,75.1 M549.2,73.2
	c1.3,0.7,2.7,1.3,4,2.1c2.1,1.2,4.1,2.5,6.1,3.8c2.7,2,5,4.4,7.1,7.1c-2.1,7.6-3.8,15.3-6.2,22.8c-4.8-4.5-10.3-8-16.4-10.3
	C545.7,90.2,547.2,81.7,549.2,73.2 M488,137.2c2.3-0.5,4.7-0.5,6.9,0.1c-0.6,5.2,0.4,10.4,3,14.9c-2,0.3-4.1,0.6-6.1,1
	c-1.2,0.2-2.4,0.5-3.6,0.8c-0.3-5.2,0.2-10.4-0.2-15.5L488,137.2 M469.6,164.6c7.2-3.6,14.8-6.1,22.7-7.4l1.9,0.8
	c-3.2,1.5-6.4,3.2-9.4,5.2c-11.9,7.9-19.9,20.7-23.7,34.3c-3.1,11.4-4.5,23.2-4.1,35c-5.6,0.9-11.3,1.9-16.8,3.2L438,236
	c-1.1-11.6-0.4-23.3,2.3-34.6c3-9.3,7.3-18.2,14-25.4C458.9,171.6,463.9,167.4,469.6,164.6 M523.2,157.6c6.5-0.1,12.8,2.1,19,4
	c6.3,2.3,12,6,17.3,10.1c7.7,6.5,13,15.3,16.9,24.6c4.2,12.8,5,26.4,3.9,39.7l-2.1-0.3c-5.6-1.2-11.2-2.3-16.9-3.2
	c-0.1-16.5-1.8-33.5-9.5-48.4c-4.6-9-11.5-16.6-20.1-22C528.9,160.5,526.1,158.9,523.2,157.6 M441.4,240.4c3.9-0.6,7.7-1.3,11.5-2.2
	c1.4,0.1,2.8,0.2,4.2,0.3c1.6,27.9,8.4,55.3,17,81.8c4.8,16.7,10.2,33.3,13.7,50.3c2,10.5,2.7,21.4,0.8,31.9
	c-1.9,9.2-4.6,18.2-8.2,26.9c-2.8,8.7-9.5,15.8-10.5,25.1c-3.5-0.8-7-1.7-10.5-2.6c1.7-8.6,7.8-15.2,11.3-23.1
	c4.5-9.4,7.9-19.2,10.2-29.4c1.5-6.5,1.6-13.2,0.3-19.8c-3.4-15.8-11.2-30.1-17.1-45c-8.8-21.2-15.8-43.2-20.7-65.6
	c-1.7-8.9-3.3-17.8-4.7-26.8C439.6,241.6,440.5,241,441.4,240.4 M551,297c5.2-19.2,8.9-38.8,9.9-58.7h4.8c3.8,0.9,7.6,1.5,11.3,2.3
	l2.3,0.9c-0.8,8.9-2.7,17.6-4.4,26.4c-4.3,20.3-10.3,40.2-17.9,59.5c-5.7,14.8-13,28.9-17.9,44c-3.3,9.9-4.4,20.7-1.2,30.7
	c3,11.2,6.9,22.2,12.5,32.4c3.3,5.5,7.2,10.9,8.3,17.5c-3.4,0.9-6.9,1.8-10.3,2.6c-0.7-4.2-2.1-8.3-4.3-12
	c-2.6-4.6-4.9-9.4-6.8-14.3c-3.3-8.4-5.9-17.2-7.8-26.1c-1.4-8.8-1.4-17.8,0-26.6c3.5-20.4,10.2-40.1,16-60c2-6.2,3.8-12.4,5.4-18.7
	V297z"/>
<path class="st19" d="M382.4,109.2C391.6,96,403,84.5,416,75.1l1.1,2.1l0.7,1.3c-13,8.9-24,20.5-33.2,33.2
	C383.9,110.9,383.1,110.1,382.4,109.2L382.4,109.2z"/>
<path class="st20" d="M600.1,78.7c0.6-1.2,1.3-2.4,2-3.5c13.1,9.4,24.5,20.9,33.6,34.2c-1,1.1-2,2.2-3,3.4
	c-9-12.9-20.2-24.2-33-33.3L600.1,78.7L600.1,78.7z"/>
<path class="st21" d="M417.8,78.5c1,1.9,2,3.8,3,5.8l0.1,0.2c-7.8,4.6-14.1,11.2-20.4,17.6c-4.4,4.4-7.5,9.9-12.2,14
	c-1-1.1-1.9-2.2-2.9-3.3l-0.8-0.9C393.8,99,404.8,87.4,417.8,78.5z"/>
<path class="st22" d="M455.1,79.4c1.1-0.7,2.4-0.4,3.7-0.3c-2.6,2-5,4.4-7,7.1c-3.9,5.3-5.6,11.9-4.6,18.5
	c0.6,6.9,2.5,13.6,4.3,20.3c0.8,3.1,2.2,6,4,8.6l-1.6,0.6c-1.9,0.8-3.8,1.7-5.6,2.7c-0.9-1.6-1.7-3.2-2.5-4.9
	c-6.1-11.6-12.1-23.3-18.2-34.9l-0.5-1c3.9-1.9,7.2-4.8,11.1-6.7C444,86.5,449.2,82.2,455.1,79.4 M455,149.9
	c2.8-2.3,6.2-3.9,9.8-4.5c3.8,0,7.6,0.1,11.2,1.4c2.1,0.8,4.1,1.7,6.1,2.6v5.8c-4.7,1.1-9.2,2.5-13.6,4.4c-2.3,1-4.6,2.1-6.8,3.2
	C459.6,158.4,457.3,154.2,455,149.9L455,149.9z"/>
<path class="st23" d="M559.3,79.1c3.6-0.9,6.5,2.1,9.6,3.6c4.6,3.6,8.9,8,10.5,13.8c2.5,8.6-1.2,17.1-2,25.6c-1.6,3.3-3.3,6.6-5,9.9
	c-0.9,1.6-1.7,3.2-2.5,4.8c-1.8-1-3.6-1.9-5.5-2.7l-1.7-0.6c1.7-2.3,3-5,3.8-7.8c2.4-8.6,4.9-17.3,4.8-26.3
	c-0.2-4.8-1.9-9.4-4.8-13.3C564.4,83.5,562,81.2,559.3,79.1 M544.3,146.1c2.7-0.5,5.4-0.7,8.2-0.7c3.9,0.5,7.5,2,10.5,4.5
	c-2.3,4.2-4.5,8.5-6.8,12.8c-3.8-2-7.8-3.7-11.8-5.1c-2.7-0.9-5.4-1.6-8.1-2.5c-0.8-1.8-0.3-4-0.4-5.9
	C538.7,148,541.5,146.9,544.3,146.1 M426.3,159.4c2.3,2.6,4.5,5.2,7,7.7c-0.2,2.2-0.3,4.3-0.4,6.5s-0.1,4.1-0.1,6.1
	c0,2.2,0.2,4.4,0.3,6.7c1.2,4.4-1.5,8.2-3,12.1l-4.9-3.4l-0.2-0.2c1.1-2.3,2.7-4.6,2.2-7.3C426.1,178.3,425.2,168.8,426.3,159.4
	 M421.8,242.6l5.5,0.7c0,0.2,0.1,0.8,0.1,1c1.1,6.1,2.2,12.2,3.7,18.2l-5.3,0.6l-2.8,0.3c0.8-0.5,1.5-1,2.3-1.6
	C423.9,255.5,422.3,249.1,421.8,242.6 M581.8,280.3c1.8-6,3.6-11.9,5-18l4.7,0.5l0.8,0.1c-1.5,6.4-3.4,12.7-5.5,19L581.8,280.3
	 M446.7,322.2c1.2-1.3,2.4-2.6,3.6-4c3.3,7.9,6.8,15.6,10.5,23.3c-0.9,1.6-1.8,3.2-2.6,4.8C453.6,338.6,450.2,330.3,446.7,322.2
	L446.7,322.2z"/>
<path class="st24" d="M597.4,83.8c0.8-1.5,1.5-2.9,2.3-4.4c12.8,9.1,24,20.4,33,33.3l-0.3,0.4c-1.3,1.5-2.6,3-3.9,4.4
	c-2.9-5-6.5-9.6-10.6-13.6c-6.7-6.6-13.1-13.7-21.2-18.8L597.4,83.8L597.4,83.8z"/>
<path class="st25" d="M568.8,82.7c8.4,2.4,15.5,7.5,22.9,12l-0.7,1.3c-4.5,8.7-8.9,17.5-13.7,26c0.8-8.5,4.5-17,2-25.6
	C577.7,90.7,573.5,86.3,568.8,82.7 M395.6,124.4c0.7,0.8,1.4,1.6,2.1,2.4c9.5,10.8,18.9,21.6,28.4,32.4l0.2,0.3
	c-1,9.4-0.2,18.9,0.9,28.2c0.5,2.7-1.1,5-2.2,7.3l-48.8-34.2c2.3-5,4.5-10.1,7-15.1C386.2,138,391.2,131.3,395.6,124.4 M364.1,235
	l57.2,7.5l0.5,0.1c0.4,6.5,2.1,12.9,3.5,19.3c-0.8,0.5-1.5,1.1-2.3,1.6c-19,2.1-38,4.2-57,6.2l-2.4-0.2c1.5-4,0.4-8.3,0.3-12.4
	C364.2,249.7,363.7,242.3,364.1,235 M592.2,263c19.6,2.1,39.1,4.3,58.7,6.4l2.7,0.3c-0.8,11.9-2.3,23.6-3.7,35.5
	c-21.1-7.6-42.1-15.4-63.2-22.9l0.1-0.2C588.8,275.7,590.8,269.4,592.2,263 M396,377.4c17-18.3,33.8-36.9,50.7-55.2
	c3.5,8.2,6.9,16.4,11.5,24.1c-0.1,0.1-0.2,0.4-0.3,0.5c-10.7,19.5-21.4,38.9-32.1,58.4l-0.9,1.7c-9.3-4.9-16.3-13.1-23.2-20.9
	C400.4,382.6,396.2,381.3,396,377.4L396,377.4z"/>
<path class="st26" d="M400.5,102.1c6.3-6.4,12.6-13,20.4-17.6c1.2,2.3,2.4,4.7,3.6,7c-8.8,7.3-17.8,14.6-24.8,23.8
	c-2,2.3-3.3,5.5-6.3,6.6l-1.6-1.8c-1.2-1.4-2.4-2.7-3.6-4.1C393,112,396.1,106.4,400.5,102.1L400.5,102.1z"/>
<path class="st27" d="M594.4,89.6c0.8-1.5,1.5-3,2.3-4.5c8.1,5,14.5,12.1,21.2,18.8c4.1,4,7.7,8.6,10.6,13.6c-1.3,1.5-2.7,3-4,4.5
	c-4.7-6.2-9.7-12.1-15.1-17.6c-4.8-5-10.5-8.9-15.5-13.7L594.4,89.6L594.4,89.6z"/>
<path class="st28" d="M447.1,104.6c-0.9-6.5,0.8-13.2,4.7-18.5c1.8,6.2,3.2,12.5,5,18.8c0.4,1.3,1,2.5,1.8,3.5
	c-2.5,2.4-4.5,5.2-5.9,8.4l-0.5,1.4c-0.4,2.2-0.7,4.5-0.8,6.7C449.6,118.2,447.8,111.5,447.1,104.6L447.1,104.6z"/>
<path class="st29" d="M566.3,86.2c2.9,3.9,4.5,8.5,4.8,13.3c0.2,9-2.4,17.7-4.8,26.3c0.2-2.5,0-5.1-0.4-7.5c0-0.2-0.1-0.5-0.1-0.7
	c-1.4-3.1-3.3-6-5.6-8.6C562.5,101.5,564.2,93.8,566.3,86.2 M576.2,196.5c1.6-5.8-0.5-11.7,0.6-17.5l2.7,3.3l5.6,0.3
	c0,2.7-0.4,5.4-0.4,8c0.8,2.6,2.1,5.1,3,7.7c2.7,7.4,4.1,15.3,4.2,23.2c0.1,5.8-0.2,11.6-0.9,17.3c-4.4-0.9-8.8-1.9-13.1-3l2.1,0.3
	C581.2,222.8,580.4,209.2,576.2,196.5L576.2,196.5z"/>
<path class="st30" d="M591.7,94.8l2.2-4.1c5,4.7,10.8,8.6,15.5,13.7c5.4,5.6,10.5,11.4,15.1,17.6c-0.9,1-1.8,2-2.7,3.1
	c-4.3-2.5-6.1-7.3-9.6-10.7c-6.6-6.6-12.9-13.9-21.3-18.3L591.7,94.8 M640.9,342.2l0.2,0.1c2.1,1.4,4.2,2.8,6.4,4.3
	c-4.7,13.3-11.3,25.9-19.4,37.5c-0.5-0.5-1.5-1.6-2-2.2c-1.2-1.3-2.4-2.6-3.6-3.9c2.7-4.6,6.1-8.8,8.3-13.7c1.8-4,4.8-7.5,6.2-11.7
	C638.1,349.1,639.5,345.6,640.9,342.2L640.9,342.2z"/>
<path class="st31" d="M424.6,91.4c0.8,1.5,1.6,3.1,2.4,4.6l0.5,1c-7.8,3.7-13.3,10.6-19.4,16.5c-3.6,4.3-7.7,8.3-10.4,13.3
	c-0.7-0.8-1.4-1.6-2.1-2.4s-1.5-1.7-2.2-2.5c3-1.1,4.4-4.3,6.3-6.6C406.8,106.1,415.8,98.7,424.6,91.4z"/>
<path class="st32" d="M481.8,96c17.9-5.1,37-5,54.9,0.2c2.4,0.8,4.7,1.6,7,2.5c6.1,2.4,11.7,5.9,16.4,10.4c2.3,2.5,4.2,5.4,5.6,8.6
	c-2.1,0.5-4.2,0.8-6.3,0.7c-5.9-0.3-11.7-0.2-17.6,0.3c-3.5-0.5-7-0.5-10.5,0c-2.1-1.3-4.2-2.5-6.4-3.6c-9.5-3.1-19.7-3.4-29.3-0.8
	c-2.6,0.9-5.2,2-7.5,3.4l-0.4,0.2c-3.4-1.1-6.9-0.4-10.3-0.6c-8.3-0.3-16.6,0.5-24.8-0.4c1.4-3.1,3.4-6,5.9-8.4
	c4.5-4.4,10.2-7.5,16-9.9C476.9,97.5,479.4,96.8,481.8,96 M496.2,96c-9.8,1-20.1,3.3-28,9.4c3.6,0.2,7.4-0.7,10.9,0.3
	c3.7,0.8,5.4,5.1,9.1,5.9c7.5,1.3,14.4-3.8,22-2.9c6.5-0.1,12.4,4.3,18.9,2.8c3.7-0.8,5.5-4.9,9.1-5.8c3.6-1,7.2-0.1,10.9-0.3
	c-11.5-9-26.7-9.3-40.6-10.4C504.4,95.4,500.4,96,496.2,96L496.2,96z"/>
<path class="st33" d="M496.2,96c4.1,0,8.2-0.6,12.3-0.9c13.9,1.1,29.1,1.4,40.6,10.4c-3.6,0.3-7.3-0.7-10.9,0.3
	c-3.7,0.8-5.4,5-9.1,5.8c-6.6,1.5-12.4-2.8-18.9-2.8c-7.6-1-14.4,4.2-22,2.9c-3.7-0.8-5.4-5.1-9.1-5.9c-3.6-1-7.3-0.1-10.9-0.3
	C476,99.3,486.3,97,496.2,96L496.2,96z"/>
<path class="st34" d="M577.3,122.1c4.7-8.6,9.1-17.4,13.7-26c8.5,4.3,14.7,11.7,21.3,18.3c3.5,3.3,5.3,8.2,9.6,10.7l0,0.1
	c-10,11.4-20,22.7-29.9,34.1c-1.6-7.2-3.5-14.9-9.1-20.2c-2.9-3.2-7.1-4.6-10.5-7C574.1,128.8,575.8,125.5,577.3,122.1 M408.1,113.5
	c6.1-5.8,11.6-12.7,19.4-16.5c6.1,11.6,12.1,23.3,18.2,35c-3.5,2.6-7.9,3.9-10.8,7.3c-5.5,5.1-7.2,12.8-8.8,19.9
	c-9.5-10.8-18.9-21.6-28.4-32.4C400.3,121.8,404.5,117.8,408.1,113.5 M579.8,301.4l0.1,0.1c20.4,13.5,40.6,27.2,61,40.7
	c-1.4,3.4-2.7,6.9-3.9,10.4c-1.4,4.2-4.3,7.7-6.2,11.7c-2.3,4.9-5.6,9.1-8.3,13.7c-17-18.6-34-37.2-51.1-55.7v-0.1
	C574.4,315.3,577.4,308.5,579.8,301.4 M425.8,405.2c10.7-19.5,21.4-38.9,32.1-58.4c6.9,12.4,13.5,26.1,11.8,40.7
	c-1.7,12.2-7.4,23.4-12.9,34.3c-5.3-2.1-10.2-5.3-15.6-7.2C435.8,411.8,430.8,408.4,425.8,405.2z"/>
<path class="st35" d="M382.4,109.2c0.7,0.8,1.4,1.7,2.2,2.5l0.8,0.9c-5.9,8.9-11.1,18.2-15.6,27.8c-1.8,4-3.2,8.2-5.7,11.8
	c-1-0.7-2-1.4-3-2C366.5,135.8,373.7,122,382.4,109.2 M345.2,232.5l3.4,0.3v0.2c-0.6,12.9,0.4,25.8-0.4,38.6l-2.8,0.2
	C344.7,258.8,344.6,245.6,345.2,232.5 M668.4,271.2l1.4,0.2l2.9,0.4c-0.7,13.4-2.3,26.7-4.7,39.8l-3.6-1.3l-0.2-0.1
	c1.2-7.5,2.6-15,3.2-22.6C667.8,282.1,669.1,276.7,668.4,271.2 M382.2,392.5c1.1-1.2,2.3-2.5,3.4-3.7c4.1,7.7,10.2,14,16.3,20
	c4.5,4.7,10.1,8.2,14.6,12.9c-0.6,1.4-1.2,2.8-1.8,4.2C402.1,416.7,391.1,405.4,382.2,392.5L382.2,392.5z"/>
<path class="st36" d="M635.7,109.3c8.8,12.7,15.9,26.5,21.2,41c-1.2,0.8-2.3,1.5-3.4,2.3c-4-9-7.3-18.3-12.6-26.6
	c-2.7-4.4-5-9.1-8.5-13l0.3-0.4C633.7,111.5,634.7,110.4,635.7,109.3L635.7,109.3z"/>
<path class="st37" d="M385.4,112.7c1,1.1,1.9,2.2,2.9,3.3c1.2,1.3,2.4,2.7,3.6,4.1c-5.5,4.9-8.2,12.1-11.9,18.3
	c-3.6,6-5.6,12.8-8.3,19.2c-2.2-1.6-4.5-3.1-6.7-4.7l-0.9-0.6c2.5-3.6,3.9-7.8,5.7-11.8C374.3,130.8,379.5,121.5,385.4,112.7
	 M661.1,270.4l2.8,0.3l4.5,0.5c0.7,5.5-0.7,10.9-1,16.4c-0.6,7.6-2,15.1-3.2,22.6c-2.7-1-5.5-2-8.2-3c0.8-1.7,1.4-3.6,1.8-5.4
	C659.4,291.4,660.4,280.9,661.1,270.4L661.1,270.4z"/>
<path class="st38" d="M495.7,114.2c9.6-2.5,19.8-2.3,29.3,0.8c-1.5,1.4-2.6,3-4,4.4c-8.6,0.5-17.2-0.1-25.8,0.1
	C495.3,117.8,495.5,116,495.7,114.2 M535.9,134.8c6.7-3,14.2-3.9,21.4-2.5c-2.8,0.1-5.7,0.1-8.5,1c-1.6,2.5-1,5.6-0.6,8.3l-2.2,0.6
	c-1.3,0.4-2.7,0.8-4,1.2c-2,0.7-4,1.5-6,2.4c-0.1-3.3-0.2-6.5-0.2-9.8L535.9,134.8 M438.9,183.1c0.2,6.1-0.9,12.5,1.3,18.4
	c-2.6,11.3-3.4,23-2.3,34.6l2.3-0.2c-4.5,1.1-8.9,2.2-13.4,3.1c-0.7-5.7-0.9-11.4-0.9-17.1c0.2-7.9,1.6-15.8,4.2-23.3
	c1.4-3.9,4.2-7.7,3-12.1C435,185.3,436.9,184.1,438.9,183.1L438.9,183.1z"/>
<path class="st39" d="M628.5,117.5c1.3-1.5,2.6-3,3.9-4.4c3.5,3.8,5.8,8.6,8.5,13c5.3,8.3,8.6,17.6,12.6,26.6
	c-3.9,2.8-7.9,5.5-11.8,8.2l-2-1c-2.7-7.6-6-14.9-10-21.9c-2.4-4.5-4.6-9.1-7.8-13l0-0.1c0.9-1,1.8-2,2.7-3.1
	C625.8,120.4,627.1,118.9,628.5,117.5L628.5,117.5z"/>
<path class="st40" d="M488.1,117.6c2.4-1.4,4.9-2.5,7.5-3.4c-0.2,1.8-0.4,3.6-0.5,5.4c-0.1,2.2,0,4.5,0,6.7
	c-2.2-1.1-4.5-1.6-6.9-1.5C488.1,122.4,488.1,120,488.1,117.6L488.1,117.6z"/>
<path class="st41" d="M521,119.5c1.4-1.4,2.5-3.1,4-4.4c2.2,1,4.4,2.2,6.4,3.5c5.1,3.8,5.2,10.5,4.5,16.2l-0.1,1.2
	c-0.1-0.5-0.4-1.6-0.5-2.1c-0.2-2.7-0.2-5.4-0.3-8.1l-4.4,0.4c-0.4-2-0.7-4-1.1-6c-2-0.4-4-0.8-6-1.1c-0.5,2.1-0.2,4.7-1.7,6.3
	c-8.9,1.1-17.9-0.7-26.7,0.9c0-2.2,0-4.5,0-6.7C503.7,119.3,512.3,120,521,119.5L521,119.5z"/>
<path class="st42" d="M452.2,118.2l0.5-1.4c8.2,0.9,16.5,0.1,24.8,0.4c3.4,0.1,7-0.5,10.3,0.6c-3.9,2.7-6.4,7-5.7,11.8
	c0,1.7,0,3.4,0.1,5c-5.7-2.4-11.8-3.4-18-3c-1.6,0.2-3.2,0.5-4.8,0.8C455.7,128.4,453.2,123.5,452.2,118.2L452.2,118.2z"/>
<path class="st43" d="M487.8,117.8l0.4-0.2c0,2.4,0,4.8,0,7.2v2.1c-1.9,1.3-4,2.3-6.2,2.8C481.3,124.8,483.8,120.5,487.8,117.8
	L487.8,117.8z"/>
<path class="st44" d="M531.4,118.6c3.5-0.5,7-0.5,10.5,0c5.8-0.4,11.7-0.5,17.6-0.3c2.1,0.1,4.2-0.2,6.3-0.7c0,0.2,0.1,0.5,0.1,0.7
	c-1.1,5.3-3.6,10.2-7.1,14.3l-1.5-0.3c-7.2-1.4-14.7-0.5-21.4,2.5C536.6,129.1,536.5,122.4,531.4,118.6L531.4,118.6z"/>
<path class="st45" d="M452.2,118.2c1.1,5.3,3.5,10.3,7.2,14.3c-1.3,0.3-2.6,0.6-3.9,1c-1.8-2.6-3.2-5.5-4-8.7
	C451.5,122.7,451.8,120.4,452.2,118.2 M558.8,132.5c3.5-4.1,6-9,7.1-14.3c0.5,2.5,0.6,5,0.4,7.5c-0.8,2.8-2,5.4-3.8,7.8
	C561.3,133.1,560,132.8,558.8,132.5z"/>
<path class="st46" d="M523.6,119.1c2,0.3,4,0.7,6,1.1c0.4,2,0.7,4,1.1,6l4.4-0.4c0.2,2.7,0.2,5.4,0.3,8.1l-4.9-0.3
	c-0.3-2.3-0.7-4.7-1.3-6.9c-1.4-1.5-3.7-0.5-5.5-0.7c-0.3,2.4-0.6,4.9-1,7.3c-9.1,1.7-18.5-0.5-27.6,1.1c0-2.7,0-5.4,0.1-8.1
	c8.8-1.6,17.9,0.2,26.7-0.9C523.4,123.8,523,121.2,523.6,119.1L523.6,119.1z"/>
<path class="st47" d="M380,138.4c3.7-6.3,6.4-13.4,11.9-18.3l1.6,1.8c0.7,0.8,1.4,1.7,2.2,2.5c-4.4,6.9-9.4,13.6-12.4,21.3
	c-2.5,4.9-4.7,10-7,15.1l-3.2-2.2l-1.4-0.9C374.4,151.2,376.4,144.4,380,138.4L380,138.4z"/>
<path class="st48" d="M488.2,124.8c2.4-0.1,4.8,0.5,6.9,1.5c0,2.7,0,5.4-0.1,8.1l-0.1,3c-2.3-0.6-4.6-0.6-6.9-0.1
	c-0.1-3.5,0.1-7,0.2-10.4L488.2,124.8L488.2,124.8z"/>
<path class="st49" d="M523.6,125.9c1.8,0.2,4.1-0.8,5.5,0.7c0.6,2.3,1.1,4.6,1.3,6.9l4.9,0.3c0.1,0.5,0.4,1.6,0.5,2.1
	c0,3.3,0.1,6.5,0.2,9.8c0,0.9,0,2.6,0,3.5c0.1,1.9-0.4,4.1,0.4,5.9c2.6,0.9,5.4,1.6,8.1,2.5c-0.8,1.4-1.6,2.8-2.4,4.1
	c-6.2-1.9-12.4-4.2-19-4c2.9,1.4,5.7,2.9,8.5,4.6c-0.5,5.8,0.4,11.7,0.1,17.5c0.2,5-0.3,10.1,0,15.2c0.2,2.7,0,5.4-0.5,8
	c-12.9-10.3-32.9-9.9-45.3,1c-0.5-8.4,0-16.8-0.4-25.2c-0.4-5.2,0.8-10.5-0.6-15.6c3-2,6.1-3.7,9.4-5.2l-1.9-0.8
	c-0.2-1.3-0.3-2.7-0.5-4c2-0.4,4-0.7,6.1-1c-2.6-4.5-3.6-9.7-3-14.9l0.1-3c9.1-1.6,18.5,0.5,27.6-1.1
	C523,130.8,523.3,128.3,523.6,125.9 M520.3,152.3c3.3,0.5,6.7,1,10.1,1.2c0.2-3.3,0-6.6-0.5-9.9c-1.9-0.4-3.9-0.6-5.8-0.5
	C522.7,146.2,521.6,149.3,520.3,152.3L520.3,152.3z"/>
<path class="st50" d="M591.9,159.2c9.9-11.4,19.9-22.8,29.9-34.1c3.2,3.9,5.5,8.5,7.8,13c4,7,7.3,14.3,10,21.9l2,1
	c-16.3,11.4-32.5,22.9-48.8,34.1c-1.1-2.4-2.9-4.8-2.2-7.6c1.5-9.2,1.9-18.6,1.1-27.9L591.9,159.2 M364.3,214.7
	c0.7-5.3,0.8-10.8,2.7-15.8c17.5,6.8,35,13.6,52.5,20.4l0.6,0.2c-0.4,7.7,0.6,15.3,1.2,22.9l-57.2-7.5l-0.6-0.1
	c-0.5-2.4-1.2-4.9-0.4-7.3C364.4,223.4,362.8,218.9,364.3,214.7 M579.9,301.5c2.3-6.5,4.9-12.9,6.9-19.4
	c21.1,7.5,42.1,15.3,63.2,22.9l0.9,0.3c-1,3.7-1.7,7.5-2,11.4c-0.1,3.4-2.2,6.3-3,9.6c-1.2,5.5-3.6,10.5-4.8,15.9l-0.2-0.1
	C620.5,328.7,600.2,315,579.9,301.5 M641.3,427.5c0.2-1.3,1.8-0.1,2,0.5c1.5,2.3,2.8,4.8,4.2,7.1c1.9-2.6,3-6,5.4-8.2l1.1,0.4
	c0,5,0.2,10-0.1,15.1l-1.5,0.3c-0.1-4-0.1-8.1,0-12.1c-1.5,2.1-2.6,4.6-4.3,6.5c-2.8-0.3-3.3-4.5-5.2-6.3c-0.1,3.9,0,7.8,0,11.7
	h-1.8C641.2,437.5,640.7,432.5,641.3,427.5 M627.3,427.3c3.9-0.3,7.9-0.2,11.8,0.2c-1.2,1.9-3.5,1.2-5.3,1.3c0,4.6,0,9.1,0,13.7
	h-1.7c-0.4-4.6-0.1-9.1-0.2-13.7h-4.8L627.3,427.3 M493.2,484.4c47.6-4.7,97.2,12,131,46.1c-1.8,2.1-3.5,4.3-5.2,6.4
	c-26.3-26.5-62.6-42.5-99.9-44.7c-43.9-3-88.9,13.3-119.9,44.6c-1.8-2.1-3.5-4.3-5.2-6.4C420.2,504.1,456.2,487.9,493.2,484.4
	 M469.2,506.7c8.2-1.7,16.4-3.3,24.5-5c0.6,3.1,1.2,6.2,1.9,9.2c-6.3,1.2-12.6,2.6-18.9,3.8c0.3,2.2,0.7,4.3,1.2,6.5
	c5.9-1.1,11.6-2.4,17.5-3.4c0.5,3,1.2,6,1.8,9c-5.8,1.3-11.6,2.4-17.4,3.6c0.5,1.9,0.3,4.2,1.9,5.7c1.4,0.8,3,0,4.5-0.1
	c4.6-1,9.3-2,13.9-2.8c0.6,3.1,1.3,6.2,1.8,9.3c-6.6,0.9-13,3.1-19.7,3.5c-5.4,0.3-10.2-3.9-11.2-9.1c-1.8-8.4-3.5-16.8-5.2-25.2
	c-0.6-2,0.6-4.1,2.6-4.7C468.7,506.8,468.9,506.7,469.2,506.7 M528,513.5c1.4-5.4,6.6-9,12.2-8.3c6.4,1,12.6,3.1,19,4.6
	c-0.7,3.1-1.6,6.2-2.6,9.2c-4.7-1.4-9.5-2.5-14.3-3.8c-1.4-0.2-3.2-1.1-4.2,0.3s-1.2,3.3-1.7,5c5.7,1.5,11.4,3,17.1,4.4
	c-0.6,3.1-1.5,6-2.2,9.1c-5.7-1.4-11.5-3-17.2-4.4c-1.4,5.2-2.7,10.3-4,15.5c-3.1-1-9-0.8-8.7-5.4
	C523.3,530.9,525.6,522.2,528,513.5 M427.5,526.5c2.5-2.1,5.1-4.2,7.7-6.3c5.1,6.3,10.2,12.6,15.4,18.9c2.6,2.9,4.1,6.6,4.3,10.4
	c0.4,12-12.9,22.3-24.4,18.5c-3.7-1.2-6.5-4-8.9-6.9c-4.8-6.1-9.9-11.9-14.6-18.1c2.6-2,5.1-4.1,7.6-6.2
	c5.6,6.5,10.7,13.5,16.5,19.8c4.7,4.8,13.4,0.1,13.6-6.1c0.2-2.5-1.4-4.6-2.9-6.5C437,538.2,432.2,532.4,427.5,526.5 M589.4,529.8
	c3.8-3.5,11.1,1.6,9.2,6.4c-3.9,13.4-7.8,26.9-11.7,40.3c-2.7-2.5-5.5-5-8.2-7.6c0.6-1.9,1.2-3.7,1.8-5.6c-2.4-1.9-4.9-3.7-7.4-5.6
	c2-1.4,4-2.8,6-4.2c1.1,0.8,2.3,1.6,3.5,2.2c1.2-4.2,2.5-8.4,3.7-12.6c-7.4,4.8-14.9,9.6-22.3,14.4c-3.2-1.6-6.3-3.4-9.2-5.4
	C566.4,544.8,577.9,537.3,589.4,529.8 M492.8,554c31.8-5.6,66.5,5.8,87.5,30.7c-1.7,2.1-3.4,4.2-5.1,6.2
	c-12.8-15.1-30.4-25.3-49.8-28.9c-29.9-5.9-62.9,5.1-82.3,28.8c-1.9-1.9-3.6-4-5.3-6.2C451.6,568.2,471.7,557.5,492.8,554
	 M480.2,614.8c7.6-6.7,17.9-9.7,28-9.8c10.1-0.1,20.2,2.4,28.1,8.5c7.8,5.9,12.6,15.1,14.1,24.7c1.6,11.1,0,23-6.4,32.5
	s-17,15.1-28.1,16.3c-0.9-5.8-1.8-11.6-2.7-17.4c6.9-1.4,12.6-6.3,15-12.9c3-8.7,2.4-19.3-3.3-26.8c-7.5-9.7-24-9.7-31.6-0.2
	c-5.9,7.6-6.6,18.4-3.4,27.2c2.4,6.6,8.1,11.4,15,12.7c-0.9,5.8-1.8,11.7-2.7,17.5c-10.1-1.2-20-5.9-26.3-14
	c-7.3-9-9.7-21.2-8.4-32.5C468.4,630.8,472.8,621.2,480.2,614.8 M563.9,613.4c5-5.1,12.3-7.2,19.3-7.3c7.5-0.1,15.5,2.1,20.9,7.6
	c5.4,5.5,7.4,13.6,6,21c-1.2,7.2-5.3,13.5-9.9,19c-6.2,7.5-13.9,13.4-20.7,20.2c10.5,0.1,21.1,0,31.6,0c0,4.1,0.1,8.3,0,12.4
	c-17.9,0-35.8,0-53.7,0c0-3.5,0-7,0-10.5c8.2-7.4,16.8-14.4,24.9-22c4.8-4.7,9.5-9.7,12.2-15.9c1.9-4.5,2.3-10-0.4-14.2
	c-3.8-5.8-12.5-6.9-18.2-3.3c-4.1,2.7-5.6,7.8-5.5,12.5c-4.4-0.5-9.2,0-13.4-1.1C556.9,625.1,559.1,618.1,563.9,613.4 M635.7,607.2
	c9.2-2.5,20-1.1,26.9,5.9c7.4,7.5,9.7,18.3,10.3,28.4c0.5,12-0.3,25.1-7.4,35.3c-9.3,13.7-32.4,14-42.2,0.8
	c-6.2-8.3-7.8-19-8.1-29.1c-0.1-10,0.8-20.5,5.7-29.4C624,613.4,629.3,609.1,635.7,607.2 M641.3,618.8c-4.2,0.9-7.1,4.4-8.6,8.2
	c-2.9,7.5-3,15.6-2.8,23.5c0.4,6.9,1,14.4,5.3,20.1s13.7,5.6,17.9-0.1s4.9-13.1,5.3-19.9c0.1-8.7,0.2-18-3.9-26
	C652,619.9,646.5,617.5,641.3,618.8 M684.2,612.4c6.8-5.9,16.4-7.3,25.1-5.8c7.1,1.1,14,5.1,17.6,11.5c4.4,7.6,3.8,17.3-0.1,24.9
	c-5.5,11-15,19-24,27.2c-1.2,1.2-2.8,2.2-3.5,3.8c10.4-0.1,20.8,0,31.2-0.1c0.1,4.1,0,8.2,0.1,12.3c-17.9,0.1-35.9,0.2-53.8,0
	c0.1-3.5,0-7,0-10.6c8.5-7.3,17-14.5,25.2-22.2c4.9-4.9,9.8-10.2,12.2-16.8c1.8-4.8,1.6-11-2.2-14.8c-5.2-5-15-4.9-19.5,1
	c-2.2,2.8-2.7,6.5-2.8,9.9c-4.5-0.2-8.9-0.5-13.4-0.8C676.1,624.9,678.5,617.3,684.2,612.4 M234.9,607.2c19,0,38.1,0,57.1,0
	c0,5.7,0,11.4,0,17c-12.4,0-24.9,0-37.3,0c0,4.9-0.1,9.8,0,14.7c11.3,0,22.7,0,34,0c-0.1,5.3,0.1,10.7-0.1,16c-11.4,0-22.7-0.2-34,0
	c0.1,4.8,0.1,9.6,0,14.3c12.5,0.2,24.9,0,37.4,0.1c0,5.7,0,11.3,0,16.9c-19.1-0.1-38.1,0.2-57.2-0.2
	C235,659.8,234.8,633.5,234.9,607.2 M307.3,607.1c6.5-0.1,13,0.1,19.5-0.1c0.4,15.8,0.1,31.7,0.1,47.5c-0.3,5,1.2,10.7,5.9,13.3
	c5.7,3,13.8,2.7,18.4-2.2c2.5-2.7,3.2-6.5,3.1-10.1c0-16.1,0-32.3,0-48.4c6.5,0,13.1,0,19.6,0c0,16.1,0,32.3,0,48.4
	c0.1,6.1-0.9,12.4-4.1,17.8c-3.8,6.5-10.5,10.9-17.8,12.7c-7.3,1.8-14.9,1.8-22.3,0.1c-7.2-1.7-14.1-5.8-18.1-12.1
	c-3-4.9-4.6-10.6-4.5-16.4C307.3,640.7,307.3,623.9,307.3,607.1 M389.3,607.1c12.6-0.1,25.2,0,37.9-0.1c7.9,0,16.3,1.8,22.3,7.1
	c14.5,12.9,8.2,41.7-11.2,46c4.5,8.8,9.8,17.1,14.1,26c-7,0-13.9,0-20.9,0c-5-13-10-25.9-14.9-38.9c4.2-0.2,8.6,0.6,12.7-0.6
	c6.1-2.3,8.8-10.1,6.8-16.1c-1.3-3.6-5.2-5.6-8.8-5.8c-6.1-0.2-12.2,0-18.3-0.1c0,20.5,0,41,0,61.5c-6.5,0-13.1,0-19.6,0
	C389.3,659.8,389.3,633.5,389.3,607.1 M764.3,607.1c6.2-0.1,12.5,0,18.7,0c0,16,0,32,0,48h10.7c0,4.1,0,8.2,0,12.2
	c-3.6,0-7.2,0-10.8,0c0,6.3,0,12.6,0,18.9c-4.6,0-9.2,0-13.8,0c-0.1-21.8,0-43.7-0.1-65.5c-6.9,10.3-13.6,20.9-20.5,31.2
	c-0.7,1-1.2,2.1-1.6,3.2h14.5c-0.6,4.1-1.3,8.1-1.9,12.2c-9.5,0.1-19.1,0-28.6,0c0.2-3.6-0.5-7.3,0.3-10.8
	C742.2,640,753.3,623.6,764.3,607.1 M361.9,718.3c7.1-9.1,21.8-10,30.7-3.1c2.9,2.4,5,5.7,5.8,9.4h-5.3
	c-3.8-10.7-19.9-12.3-26.7-3.7c-4.7,6.1-5,15.1-1.5,21.9c5,9.5,20,10.4,26.6,2.3c2-2.3,2.6-5.4,2.9-8.4c-6.4,0-12.8,0-19.2,0
	c0-1.4,0-2.8,0-4.2c8,0,16,0,24.1,0c0.8,6.3-0.9,13.2-5.7,17.5c-5.9,5.3-14.6,6.2-22,4.2c-6.3-1.8-11.3-6.6-13.2-12.8
	C356.1,733.8,356.8,724.7,361.9,718.3 M407.4,754.6c0.1-14.5-0.1-28.9,0.1-43.3c10,0.1,20.1,0.1,30.1,0c0.1,1.6,0.1,3.2,0.1,4.8
	c-8.4-0.1-16.8,0-25.1,0c0,4.8,0.1,9.7-0.1,14.5c7.8,0.4,15.7,0.1,23.5,0.2c0,1.5,0,3-0.1,4.5c-7.8,0-15.6,0-23.4,0
	c0,4.9,0,9.8,0,14.7c8.4,0,16.8,0,25.2,0c0,1.6,0,3.1,0,4.7C427.7,754.7,417.5,754.8,407.4,754.6 M446,711.3c6.4,0,12.7,0,19.1,0
	c3.6,0,7.4,0.8,10.2,3.1c6.1,4.7,5.9,15.5-0.5,19.9c-2.6,1.9-5.9,2.3-9,2.6c5.1,5.9,10.2,11.8,15.2,17.7c-2.5-0.4-5.9,1.2-7.6-1.3
	c-5.8-6.9-11.8-13.7-17.6-20.6c4.5-0.2,9.2,0.7,13.5-0.7c5.3-1.8,6.6-9.5,2.8-13.3c-1.9-1.8-4.5-2.7-7.1-2.6
	c-4.6-0.1-9.2,0-13.9-0.1c-0.2,12.9,0.1,25.8-0.1,38.7c-1.7,0-3.4,0-5,0C446,740.3,446,725.8,446,711.3 M487,711.3c2,0,3.9,0,5.9,0
	c5.4,8.7,10.9,17.3,16.4,25.9c5.5-8.5,10.8-17.2,16.2-25.8c2-0.1,4-0.1,6-0.1c0,14.5,0,28.9,0,43.4h-5.1
	c-0.1-11.7,0.2-23.5-0.2-35.2c-5.6,8-10.2,16.7-15.8,24.7l-2.2-0.1c-5.5-8.2-10.5-16.7-15.9-24.8c-0.1,11.8,0,23.6,0,35.5l-5.1,0.1
	C487,740.3,487,725.8,487,711.3 M554.3,711.3c2,0,4,0,6.1,0c5.8,14.5,11.6,28.9,17.4,43.4c-1.9,0-3.8,0-5.7,0
	c-1.4-3.6-2.8-7.2-4.2-10.8c-4.6,0-9.2,0-13.8,0c-0.2-1.4-0.5-2.8-0.7-4.2c4.3,0,8.7,0,13,0c-2.9-7.7-6-15.3-8.7-23
	c-5.3,12.5-9.7,25.4-14.7,38c-1.9,0-3.7,0-5.6,0.1C542.9,740.2,548.8,725.9,554.3,711.3 M584.1,711.4c1.9,0.2,4-0.5,5.7,0.3
	c8.2,11.5,15.9,23.2,24.1,34.7c0-11.7,0-23.3,0-35h5.1c0,14.5,0,28.9,0,43.4c-1.9,0-3.7,0-5.6-0.1c-8-11.8-16.1-23.5-24.1-35.2
	c-0.1,11.8,0,23.5,0,35.3h-5.2C584.1,740.3,584.1,725.8,584.1,711.4 M624.1,711.4c2,0,4,0,5.9,0c4.1,6.4,8.4,12.6,12.5,18.9
	c4.3-6.3,8.4-12.7,12.6-19c1.9,0,3.8,0,5.8,0c-5.2,7.8-10.9,15.2-15.7,23.1c-0.2,6.7,0,13.5-0.1,20.2H640c0-6.4,0-12.7,0-19.1
	c0.2-1.8-1.3-3.1-2.2-4.5C633.3,724.5,628.5,718.1,624.1,711.4L624.1,711.4z"/>
<path class="st51" d="M482,129.7c2.2-0.5,4.3-1.5,6.2-2.8c0,3.5-0.2,7-0.2,10.4v1.2c-0.4,0.9-0.8,1.8-1.2,2.6l-4.6,0.4
	c0-2.2-0.1-4.5-0.1-6.7C482,133,482,131.4,482,129.7L482,129.7z"/>
<path class="st52" d="M445.7,132c0.9,1.6,1.7,3.2,2.5,4.9c-10.3,6.4-13.8,19-15,30.3c-2.4-2.5-4.7-5.1-7-7.7l-0.2-0.3
	c1.6-7.1,3.2-14.7,8.8-19.9C437.8,135.9,442.2,134.7,445.7,132 M569.8,136.9c0.8-1.6,1.7-3.2,2.5-4.8c3.5,2.4,7.6,3.8,10.5,7
	c5.6,5.2,7.5,13,9.1,20.2l-0.2,0.3c-2.3,2.6-4.7,5.2-7,7.9C583.4,156,580.1,143.3,569.8,136.9 M447.8,172.4
	c-0.2-7.9,1.1-16.9,7.3-22.5c2.2,4.3,4.5,8.5,6.6,12.8c-3.3,1.7-6.5,3.8-9.5,6C450.7,169.9,449.2,171.1,447.8,172.4 M556.3,162.7
	c2.2-4.3,4.5-8.6,6.8-12.8c5.9,5.6,7.9,14.4,6.9,22.3c-3.3-3-6.9-5.6-10.7-7.8C558.3,163.8,557.3,163.2,556.3,162.7 M567.8,318
	c2.8-6.4,5.3-12.9,7.8-19.5l4.2,2.8c-2.4,7.1-5.4,13.9-8.4,20.8C570.2,320.8,568.9,319.4,567.8,318 M460.8,341.5
	c5.5,11.8,12.6,23.2,14.7,36.2c2.5,16.9-6.1,32.4-13.3,47c-2-0.5-4.1-1-6.1-1.5c0.2-0.3,0.5-1,0.7-1.3c5.5-10.9,11.2-22.1,12.9-34.3
	c1.7-14.6-4.9-28.3-11.8-40.7c0.1-0.1,0.2-0.4,0.3-0.5C459,344.7,459.9,343.1,460.8,341.5L460.8,341.5z"/>
<path class="st53" d="M464.1,131.8c6.1-0.4,12.3,0.6,18,3c0.1,2.2,0.1,4.5,0.1,6.7c0,1.5-0.1,2.9-0.1,4.4c-2-0.8-3.9-1.7-5.9-2.5
	c-1.3-0.5-2.6-0.9-4-1.2c-2.1-0.3-4.2-0.5-6.3-0.6C465.3,138.4,467.5,134,464.1,131.8L464.1,131.8z"/>
<path class="st54" d="M455.4,133.6c1.3-0.4,2.6-0.7,3.9-1c1.6-0.3,3.2-0.6,4.8-0.8c3.4,2.3,1.1,6.6,1.8,9.9
	c-4.2,0.9-8.2,2.5-11.9,4.8c0-4.1,0-8.2-0.2-12.3L455.4,133.6 M550.2,236.2c4.6,0.6,9.3,1.3,14,1.5l1.5,0.8h-4.8
	c-1,19.9-4.7,39.5-9.9,58.7c-2.9-3.3-0.6-7.7-1-11.5c-0.8-10,0.8-20.1-0.8-30c-0.5-2.7,1-5.3,0.8-8
	C549.6,243.9,549.7,240,550.2,236.2L550.2,236.2z"/>
<path class="st55" d="M548.8,133.2c2.7-0.9,5.6-0.8,8.5-1l1.5,0.3c1.3,0.3,2.5,0.6,3.8,1l1.7,0.6c-0.1,4.2-0.1,8.3-0.1,12.5
	c-4.8-3-10.2-5.2-16-5.1C547.8,138.8,547.2,135.7,548.8,133.2L548.8,133.2z"/>
<path class="st56" d="M653.6,132c7.8,15.5,12.9,32.3,16.8,49.2c6.3,28.7,8,58.2,6.7,87.4c-2,40.4-10.5,81.5-31.4,116.5
	c-15.8,26.6-39.7,48.7-68.5,60.5c-6.1,2.5-12.3,4.6-18.5,6.4c-1.1-6.5-5-11.9-8.3-17.5c3.3-0.7,6.6-1.2,10-1.5
	c1.5,2.6,3,5.2,4.2,7.9c0.6,1.4,1.2,2.8,1.8,4.2c0,0.9-0.1,1.8-0.1,2.7c28.8-8.9,54.1-28.2,71.2-52.9c23-32.3,33.6-71.8,37.3-110.9
	c1.1-7.1,0.5-14.3,1.6-21.4c0.1-10.1,0.6-20.2-0.7-30.2c-0.4-11.3-1.5-22.6-3.3-33.8c-3.7-21.5-9-43-18.4-62.8
	C653.7,134.6,653.5,133.3,653.6,132 M347.3,317.9c0.6,0.8,1.2,1.8,1.5,2.8c7.8,35.3,23.2,70.2,49.8,95.4
	c11.8,11.9,26.2,21,41.5,27.6c3.7,1.4,7.3,3.5,11.4,3.7c0.1-0.7,0.2-1.5,0.3-2.2s0.6-2.1,0.8-2.8c1.7-4.1,4.2-7.9,6.3-11.9l0.7-1.2
	c3.6-0.2,7.3-0.3,10.9-0.5c-3.5,7.9-9.6,14.5-11.3,23.1c-18.8-5.1-36.4-13.9-51.6-26c-25.7-20.4-43.2-49.7-53.3-80.6
	C351.5,336.4,348.6,327.3,347.3,317.9L347.3,317.9z"/>
<path class="st57" d="M448.3,136.8c1.8-1,3.7-1.9,5.6-2.7c0.2,4.1,0.3,8.2,0.2,12.3c-5.9,4.9-8.4,12.7-9.1,20.1
	c-0.9,1.6-1.8,3.8-4,3.7c-3.1,0.2-6.4,0.3-8.2,3.3c0.1-2.2,0.2-4.3,0.4-6.5C434.5,155.9,437.9,143.2,448.3,136.8L448.3,136.8z"/>
<path class="st58" d="M564.3,134.1c1.9,0.8,3.7,1.7,5.5,2.7c10.3,6.4,13.7,19.1,15,30.5c0.1,0.6,0.2,1.9,0.3,2.5
	c-3.3,3.4-8.1,0.5-11.8-0.4c-0.4-8.3-2.6-17.1-9-22.8C564.2,142.5,564.2,138.3,564.3,134.1L564.3,134.1z"/>
<path class="st59" d="M486.8,141.1c0.4-0.9,0.8-1.8,1.2-2.6c0.4,5.2-0.1,10.4,0.2,15.5c-2,0.4-4.1,0.8-6.1,1.2v-5.8
	c0-1.2,0-2.3,0-3.5c0-1.5,0.1-3,0.1-4.4L486.8,141.1z"/>
<path class="st60" d="M454.1,146.5c3.6-2.3,7.7-3.9,11.9-4.8c2.1,0,4.2,0.2,6.3,0.6c-2.9,0-5.2,1.6-7.4,3.2c-3.6,0.6-7,2.2-9.8,4.5
	c-6.2,5.6-7.5,14.5-7.3,22.5c-0.9,0.9-1.7,1.8-2.6,2.6c-0.2-2.8-0.3-5.6-0.2-8.5C445.7,159.1,448.2,151.4,454.1,146.5L454.1,146.5z"
	/>
<path class="st61" d="M546,142.2l2.2-0.6c5.7-0.2,11.2,2,16,5.1c6.5,5.6,8.7,14.5,9,22.8c0,1.9-0.1,3.7-0.2,5.6l-3.1-2.8
	c0.9-7.9-1.1-16.6-6.9-22.3c-3-2.5-6.6-4.1-10.5-4.5C551,143.3,548.5,142.1,546,142.2L546,142.2z"/>
<path class="st62" d="M464.8,145.4c2.2-1.6,4.5-3.2,7.4-3.2c1.4,0.3,2.7,0.7,4,1.2c-0.1,0.8-0.2,2.5-0.2,3.4
	C472.4,145.6,468.6,145.5,464.8,145.4L464.8,145.4z"/>
<path class="st63" d="M542,143.4c1.3-0.5,2.6-0.9,4-1.2c2.6,0,5,1.2,6.5,3.2c-2.7,0-5.5,0.2-8.2,0.7L542,143.4L542,143.4z"/>
<path class="st64" d="M476.2,143.4c2,0.8,3.9,1.6,5.9,2.5c0,1.2,0,2.3,0,3.5c-2-0.9-4-1.9-6.1-2.6
	C476.1,146,476.2,144.3,476.2,143.4z"/>
<path class="st65" d="M520.2,152.4c1.3-3,2.4-6.2,3.8-9.2c2-0.1,3.9,0.1,5.8,0.5c0.5,3.3,0.7,6.6,0.5,9.9
	C526.9,153.3,523.6,152.9,520.2,152.4L520.2,152.4z"/>
<path class="st66" d="M536,145.8c2-0.8,4-1.6,6-2.4l2.3,2.7c-2.9,0.8-5.6,1.9-8.3,3.1C536,148.4,536,146.6,536,145.8L536,145.8z"/>
<path class="st67" d="M361.1,150.3c1,0.7,2,1.3,3,2l0.9,0.6c-1.4,2.9-2.6,5.9-3.6,9.1c-2.5,10.6-5.8,21-7.9,31.7l-0.4-0.2l-3.3-1.4
	C352.1,177.8,355.9,163.8,361.1,150.3z"/>
<path class="st68" d="M361.4,162c0.9-3.1,2.1-6.1,3.6-9.1c2.2,1.6,4.4,3.2,6.7,4.7l1.4,0.9c-3.7,5.6-4.5,12.4-6.5,18.6
	c-2.6,6.3-2.6,13.3-4.5,19.8c-2.8-1.1-5.7-2.2-8.5-3.3C355.6,183,358.9,172.6,361.4,162 M621.9,386.4c1.2-1.6,2.6-3.1,4.1-4.5
	c0.5,0.5,1.5,1.6,2,2.2c1.4,1.6,2.9,3.2,4.3,4.8c-4.7,7.5-10.7,13.9-16.8,20.3c-4.9,4.1-9.4,8.9-15.1,12c-0.8-1.4-1.5-2.8-2.3-4.1
	c-0.9-1.6-1.7-3.2-2.6-4.8C605.7,405.1,615,396.6,621.9,386.4L621.9,386.4z"/>
<path class="st69" d="M488.2,154c1.2-0.3,2.4-0.5,3.6-0.8c0.1,1.4,0.3,2.7,0.5,4c-7.9,1.3-15.6,3.8-22.7,7.4c0.3-1.8,0-3.6-1-5.1
	c4.4-1.9,9-3.3,13.6-4.4C484.2,154.7,486.2,154.4,488.2,154L488.2,154z"/>
<path class="st70" d="M544.4,157.6c4.1,1.4,8,3.1,11.8,5.1c1,0.5,2,1.1,2.9,1.6c0.1,2.5,0.2,5,0.1,7.5c-5.3-4.1-11-7.9-17.3-10.1
	C542.9,160.4,543.6,159,544.4,157.6 M573.2,169.4c3.7,0.9,8.5,3.8,11.8,0.4c0.2,4.3,0.1,8.6,0.1,12.9l-5.6-0.3l-2.7-3.3
	c-1.2-1.4-2.4-2.8-3.8-4C573.1,173.1,573.2,171.3,573.2,169.4z"/>
<path class="st71" d="M373.1,158.6l3.2,2.2l48.8,34.2l0.2,0.2c-3.6,7.6-4.2,16.1-5.7,24.3c-17.5-6.9-35-13.6-52.5-20.4
	c-1.7-0.6-3.4-1.3-5-2c2-6.5,2-13.5,4.5-19.8C368.6,170.9,369.4,164.1,373.1,158.6 M598.4,219c19.2-7.4,38.4-14.9,57.7-22.4
	c2.6,12.4,2.7,25.1,4.2,37.6c-2,0.3-4.1,0.5-6.1,0.8c-18,2.4-35.9,4.7-53.9,7.1l-3.6,0.2c0.7-7.6,1.8-15.3,1.2-23L598.4,219
	 M366.2,269.7c19-2,38-4.1,57-6.2l2.8-0.3c1.2,6.5,3.5,12.9,5.3,19.2c-20.8,7.6-41.6,15.1-62.4,22.7l-5,1.8l-1.6,0.6
	c-1.9-9.5-3.6-19.1-3.8-28.8c0.1-2.7-0.4-5.4-1.5-7.9l-0.2-0.2l2.4-0.2C361.6,270.2,363.9,269.9,366.2,269.7 M571.4,322.2
	c17,18.5,34.1,37.1,51,55.7c1.2,1.3,2.4,2.6,3.6,3.9c-1.5,1.4-2.9,2.9-4.1,4.5c-6.9,10.2-16.2,18.7-26.2,25.8c-1.1-2-2.2-4-3.3-6
	c-10.8-19.8-21.8-39.5-32.5-59.4C564.1,338.8,567.9,330.6,571.4,322.2L571.4,322.2z"/>
<path class="st72" d="M461.7,162.8c2.2-1.2,4.5-2.2,6.8-3.2c1,1.5,1.3,3.3,1,5.1c-5.8,2.8-10.7,7.1-15.4,11.4
	c-0.4-2.5-0.5-5.2-2.1-7.3C455.1,166.6,458.3,164.6,461.7,162.8L461.7,162.8z"/>
<path class="st73" d="M584.8,167.3c2.3-2.6,4.6-5.2,7-7.9c0.8,9.3,0.4,18.7-1.1,27.9c-0.7,2.8,1,5.2,2.2,7.6l0.1,0.3l-5.2,3.1
	c-0.9-2.6-2.3-5-3-7.7c0-2.7,0.4-5.4,0.4-8c0-4.3,0.1-8.6-0.1-12.9C584.9,169.2,584.8,168,584.8,167.3 M420.1,219.6
	c1.9,0.7,3.9,1.5,5.9,2.2c-0.1,5.7,0.2,11.5,0.9,17.1c0.1,1.5,0.3,2.9,0.5,4.4l-5.5-0.7l-0.5-0.1
	C420.7,234.9,419.7,227.3,420.1,219.6 M577.4,293.3c1.6-4.3,3-8.6,4.4-13l5,1.6l-0.1,0.2c-2,6.5-4.6,12.9-6.8,19.4l-0.1-0.1
	l-4.2-2.8C576.1,296.8,576.8,295,577.4,293.3L577.4,293.3z"/>
<path class="st74" d="M531.6,162.3c8.6,5.4,15.5,13,20.1,22c7.7,14.9,9.4,31.9,9.5,48.4c-3.1-0.5-6.2-0.8-9.3-1.2
	c-2.2-0.3-4.5-0.7-6.7-1c-0.3-0.9-0.5-1.8-0.8-2.8c-1-9.7-5.8-18.6-13.4-24.7c0.5-2.6,0.7-5.3,0.5-8c-0.3-5.1,0.2-10.1,0-15.2
	C531.9,174,531,168.2,531.6,162.3L531.6,162.3z"/>
<path class="st75" d="M461.2,197.6c3.8-13.6,11.7-26.4,23.7-34.3c1.4,5.1,0.2,10.4,0.6,15.6c0.3,8.4-0.2,16.8,0.4,25.2
	c-6.3,5.5-10.5,13.1-11.9,21.4c-0.3,1.7-0.6,3.3-0.9,5c-1.6,0.3-3.1,0.6-4.7,0.8c-3.7,0.5-7.5,0.8-11.2,1.4
	C456.6,220.9,458,209,461.2,197.6L461.2,197.6z"/>
<path class="st76" d="M559.2,164.4c3.9,2.2,7.5,4.8,10.7,7.8l3.1,2.8c1.4,1.2,2.6,2.6,3.8,4c-1.2,5.7,0.9,11.7-0.6,17.5
	c-3.8-9.2-9.1-18.1-16.9-24.6C559.4,169.4,559.4,166.9,559.2,164.4 M556.9,327.5c7.6-19.3,13.6-39.2,17.9-59.5
	c2.4,3.3,1.3,7.5,1.5,11.3c0.1,4.6-1.3,9.6,1.1,13.9c-0.6,1.8-1.2,3.5-1.9,5.3c-2.5,6.6-5,13.1-7.8,19.5c-3.4,8.1-6.9,16.1-10.8,24
	c-4.5,9.4-9.7,18.4-12.8,28.4l-2.1-0.5c-1,0.6-2,1.1-3,1.7C544,356.4,551.3,342.3,556.9,327.5L556.9,327.5z"/>
<path class="st77" d="M441,170.3c2.2,0.1,3.1-2.1,4-3.7c-0.1,2.8-0.1,5.7,0.2,8.5c-1.6,1.6-3.2,3.4-5.4,4.1c-2.3,0.4-4.7,0.6-7,0.6
	c0-2,0-4.1,0.1-6.1C434.6,170.6,437.9,170.5,441,170.3L441,170.3z"/>
<path class="st78" d="M447.8,172.4c1.4-1.3,2.9-2.5,4.4-3.6c1.6,2.1,1.7,4.8,2.1,7.3c-6.6,7.2-11,16.1-14,25.4
	c-2.2-5.9-1.1-12.3-1.3-18.4c-2,1-4,2.1-5.9,3.4c-0.2-2.2-0.3-4.4-0.3-6.7c2.3,0,4.7-0.2,7-0.6c2.2-0.7,3.7-2.6,5.4-4.1
	C446,174.2,446.8,173.3,447.8,172.4L447.8,172.4z"/>
<path class="st79" d="M349.8,192.1l3.4,1.4c-1.2,10.3-3.1,20.6-3.5,31c-0.2,2.8-0.5,5.5-1,8.3l-3.4-0.3
	C346,218.9,347.5,205.5,349.8,192.1 M664.3,310.3l3.6,1.3c-2.6,14-6.4,27.7-11.3,41.1l-2.4-1.6l-1.4-0.9
	C657.9,337.3,661.8,323.9,664.3,310.3z"/>
<path class="st80" d="M665.1,193.1c1-0.3,2-0.5,3-0.7c3,13.1,4,26.6,4.7,40.1l-3.2,0.3c-1.2-7-0.7-14.1-1.9-21.1
	C667.5,205.4,667,199.1,665.1,193.1L665.1,193.1z"/>
<path class="st81" d="M353.1,193.5l0.4,0.2c2.8,1.1,5.7,2.2,8.5,3.3c1.7,0.7,3.3,1.3,5,2c-2,5-2,10.5-2.7,15.8
	c-1.5,4.2,0.1,8.7-1.2,12.9c-0.8,2.4-0.1,4.9,0.4,7.3l-4.5-0.6c-1.6-0.2-3.2-0.4-4.8-0.6c-1.9-0.2-3.8-0.4-5.6-0.6v-0.2
	c0.5-2.7,0.8-5.5,1-8.3C349.9,214.1,351.8,203.9,353.1,193.5L353.1,193.5z"/>
<path class="st82" d="M656,196.6c3-1.1,6-2.4,9-3.5c2,6,2.5,12.3,2.7,18.5c1.2,7,0.7,14.1,1.9,21.1v0.2c-2.5,0.3-5,0.6-7.5,0.9
	l-1.9,0.3C658.7,221.7,658.6,209,656,196.6L656,196.6z"/>
<path class="st83" d="M425.3,195.1l4.9,3.4c-2.6,7.5-4,15.3-4.2,23.3c-2-0.7-3.9-1.5-5.9-2.2l-0.6-0.2
	C421.1,211.2,421.6,202.7,425.3,195.1 M592,221.5c1.9-0.8,3.9-1.5,5.8-2.3c0.6,7.7-0.5,15.4-1.2,23l3.6-0.2l-3.9,0.5
	c-1.7,0.2-3.4,0.5-5.1,0.8c-0.1-1.5-0.1-3-0.1-4.6C591.8,233.1,592.1,227.3,592,221.5 M426,263.1l5.3-0.6c1.5,6,3.2,12,5,18l-5,1.9
	C429.5,276,427.2,269.7,426,263.1 M557,342c3.9-7.9,7.4-15.9,10.8-24c1.2,1.4,2.4,2.8,3.6,4.1v0.1c-3.6,8.3-7.4,16.5-11.5,24.5v0.1
	C559,345.2,558,343.6,557,342L557,342z"/>
<path class="st84" d="M485.8,204c12.4-10.9,32.4-11.3,45.3-1c7.6,6.1,12.4,14.9,13.4,24.6c-1.9-0.8-3.7-1.7-5.3-2.9
	c-2.7-12.4-12.6-21.9-25-24.1c-12.5-2.3-25.7,4.3-31.9,15.2c-2.5,4.2-3.5,9-4.2,13.8c-1.2,0.1-2.4,0.3-3.6,0.5
	c-0.2-1.5-0.5-3.1-0.7-4.6C475.2,217.1,479.4,209.5,485.8,204z"/>
<path class="st85" d="M587.8,198.3l5.2-3.1c3.4,7.5,4.4,15.7,5.4,23.8l-0.6,0.2c-2,0.8-3.9,1.5-5.8,2.3
	C591.9,213.6,590.4,205.8,587.8,198.3z"/>
<path class="st86" d="M482.2,215.8c6.2-10.9,19.4-17.5,31.9-15.2c12.4,2.2,22.3,11.8,25,24.1c0.1,1.6,0.2,3.2,0.3,4.8
	c-15.1-0.3-30.2-1.1-45.4-0.5c-5.3,0.3-10.7,0.4-16,0.5C478.7,224.8,479.8,220,482.2,215.8L482.2,215.8z"/>
<path class="st87" d="M539.1,224.7c1.6,1.2,3.4,2.2,5.3,2.9c0.2,0.9,0.5,1.9,0.8,2.8c2.2,0.3,4.4,0.7,6.7,1c0.9,1.3,1.8,2.5,2.9,3.6
	c3,1.4,6.6,0.9,9.4,2.7c-4.7-0.2-9.3-0.9-14-1.5c-1.8-0.2-3.7-0.3-5.5-0.4c-0.7,3.6-1.8,7.1-3.1,10.4l-4.7-2c1.4-2.8,2.2-6,2.1-9.1
	c-10.6-1-21.2-1.4-31.9-1.6c-9.5,0.6-19,0.4-28.5,1.9c0.5,4,1.8,7.9,3.9,11.3c-1.5,0.8-3.1,1.5-4.6,2.3c-2.3-4.1-3.5-8.8-4.7-13.3
	c-6.4,0.4-12.7,1.9-19.1,2.1c3.2-2,7.1-1.7,10.7-2.7c1.8-0.5,2.4-2.5,3.5-3.8c1.6-0.2,3.1-0.6,4.7-0.8c0.3-1.7,0.6-3.3,0.9-5
	c0.2,1.6,0.4,3.1,0.7,4.6c1.2-0.2,2.4-0.4,3.6-0.5c5.3-0.1,10.7-0.2,16-0.5c15.1-0.7,30.2,0.2,45.4,0.5
	C539.4,227.9,539.3,226.3,539.1,224.7L539.1,224.7z"/>
<path class="st88" d="M457.1,232.6c3.7-0.6,7.5-0.9,11.2-1.4c-1.1,1.3-1.7,3.3-3.5,3.8c-3.5,1-7.5,0.8-10.7,2.7l-1.2,0.6
	c-3.8,0.9-7.7,1.6-11.5,2.2c-4.8,0.5-9.4,1.7-13.8,3.7c0-0.2-0.1-0.8-0.1-1c-0.2-1.4-0.4-2.9-0.5-4.4c4.5-0.9,9-2,13.4-3.1
	C445.8,234.6,451.4,233.6,457.1,232.6L457.1,232.6z"/>
<path class="st89" d="M551.9,231.4c3.1,0.4,6.2,0.8,9.3,1.2c5.6,0.9,11.3,2,16.9,3.2c4.4,1.1,8.7,2.1,13.1,3c0,1.5,0,3.1,0.1,4.6
	l-0.8,0.1c-4.5-0.8-8.9-2.7-13.5-2.8c-3.8-0.8-7.6-1.4-11.3-2.3l-1.5-0.8c-2.8-1.8-6.4-1.4-9.4-2.7
	C553.7,233.9,552.7,232.7,551.9,231.4L551.9,231.4z"/>
<path class="st90" d="M669.7,232.8l3.2-0.3c0.5,13.1,0.6,26.2-0.2,39.3l-2.9-0.4c-0.2-12.8,0.1-25.6-0.1-38.4L669.7,232.8
	L669.7,232.8z"/>
<path class="st91" d="M354.2,233.7c1.6,0.2,3.2,0.4,4.8,0.6c0.1,4.1,0.2,8.2-0.1,12.3c-0.5,8,0.5,15.9,0.3,23.9l-2.4,0.2l-2.4-0.5
	C353.8,258,353.8,245.8,354.2,233.7L354.2,233.7z"/>
<path class="st92" d="M478.6,235.4c9.4-1.5,19-1.2,28.5-1.9c10.6,0.2,21.3,0.6,31.9,1.6c0,3.2-0.7,6.3-2.1,9.1
	c-5,10-15.2,17.7-26.7,17.8c-11.2,0.7-22-5.9-27.6-15.4C480.4,243.2,479.1,239.4,478.6,235.4z"/>
<path class="st93" d="M654.1,234.9c2-0.3,4.1-0.5,6.1-0.8l1.9-0.3l1.4,1.2c0.2,3.2,0.9,6.5,0.8,9.7c-1.1,8.6-0.5,17.3-0.5,25.9
	l-2.8-0.3l-7.5-0.8l-2.7-0.3l3.2-0.7c0.5-4.4,0.6-8.8,0.4-13.2C654.4,248.6,655.2,241.7,654.1,234.9L654.1,234.9z"/>
<path class="st94" d="M662.2,233.9c2.5-0.4,5-0.7,7.5-0.9c0.2,12.8-0.1,25.6,0.1,38.5l-1.4-0.2l-4.5-0.5c-0.1-8.6-0.6-17.3,0.5-25.9
	c0.1-3.3-0.6-6.5-0.8-9.7L662.2,233.9L662.2,233.9z"/>
<path class="st95" d="M359,234.3l4.5,0.6l0.6,0.1c-0.4,7.4,0.1,14.8,0,22.1c0.1,4.1,1.1,8.4-0.3,12.4l2.4,0.2
	c-2.3,0.3-4.6,0.6-7,0.8c0.2-8-0.8-15.9-0.3-23.9C359.1,242.5,359.1,238.4,359,234.3L359,234.3z"/>
<path class="st96" d="M454.1,237.8c6.4-0.1,12.7-1.6,19.1-2.1c1.2,4.6,2.4,9.1,4.7,13.3c2.9,6.1,8.4,10.4,14,14
	c-2,4.8,0.3,10-1,14.9c-0.8,3.5,0.1,7.1,0.1,10.7c0.3,5-0.4,10,0.3,14.9c0.3,2.5,3.5,2.4,5,3.8c0.2,1,0.3,2,0.4,3
	c1.5,0.4,3,0.7,4.5,1.1c1.2,3.1,4.2,4.3,7.2,4.9c1,2.8,3.7,3.2,6.2,2.7c1.1-5.4,7.5-7.1,8.7-12.3c4-1.3,3.2-6.1,3.2-9.4
	c-0.4-6,0.4-11.9-0.1-17.9c-0.5-5.5,0.8-11-0.6-16.4c6.6-4,12.9-9.5,15.7-17c1.4-3.4,2.4-6.9,3.1-10.4c1.8,0.1,3.7,0.2,5.5,0.4
	c-0.5,3.8-0.6,7.6-0.2,11.4c0.2,2.7-1.3,5.3-0.8,8c1.6,10,0,20,0.8,30c0.4,3.8-1.8,8.2,1,11.5c-1.6,6.3-3.4,12.5-5.4,18.7l-1.6-1.4
	c-1.7,5.1-5.7,8.9-8.9,13.1c-6.5,7.9-13.2,15.5-21.5,21.5c-13-3.4-24.3-11.7-33.2-21.5c-1.5-2.9-3.9-5-6.4-7
	c-8.6-26.5-15.4-53.9-17-81.8c-1.4-0.1-2.8-0.2-4.2-0.3L454.1,237.8L454.1,237.8z"/>
<path class="st97" d="M600.2,242.1c18-2.4,35.9-4.7,53.9-7.1c1,6.8,0.2,13.6,0.5,20.5c0.2,4.4,0.1,8.8-0.4,13.2l-3.2,0.7
	c-19.6-2.1-39.1-4.3-58.7-6.4l-0.8-0.1c1-1.2,1.7-2.7,2-4.2c1.2-5.3,2.2-10.7,3-16.1L600.2,242.1 M368.9,305.1
	c20.8-7.6,41.6-15.1,62.4-22.7c2.2,6.4,4.5,12.8,6.8,19.1c-19.3,12.9-38.7,25.8-58,38.7C373.8,329.5,372.4,316.8,368.9,305.1
	 M559.9,346.8v-0.1c10.6,19.9,21.7,39.6,32.5,59.4c-6.3,4.1-13,7.5-19.4,11.4c-3.5,2.2-8,1.9-11.2,4.7l-0.5,0.3
	c-5.7-13.1-13.4-26.2-13.2-40.9C548.3,369,554.6,357.8,559.9,346.8L559.9,346.8z"/>
<path class="st98" d="M427.5,244.3c4.4-2,9-3.3,13.8-3.7c-0.9,0.6-1.8,1.2-2.7,1.8c1.4,9,3,17.9,4.7,26.8c-1.6,4,0.2,8.3-0.3,12.5
	c-0.5,3.8,0.6,7.7-0.3,11.4l-1.8,1.2c-1.7-4.5-3.2-9.1-4.6-13.7c-1.9-6-3.5-12-5-18S428.6,250.4,427.5,244.3L427.5,244.3z"/>
<path class="st99" d="M576.9,240.8c4.7,0.1,9,2,13.5,2.8c-0.8,6.3-2.1,12.6-3.6,18.8c-1.5,6-3.2,12-5,18c-1.3,4.4-2.8,8.7-4.4,13
	c-2.4-4.3-1-9.3-1.1-13.9c-0.2-3.8,0.9-8-1.5-11.3c1.6-8.8,3.6-17.5,4.4-26.4L576.9,240.8L576.9,240.8z"/>
<path class="st100" d="M591.3,243.4c1.7-0.3,3.4-0.6,5.1-0.8c-0.7,5.4-1.8,10.7-3,16.1c-0.3,1.5-1,3-2,4.2l-4.6-0.5
	c1.6-6.2,2.8-12.5,3.6-18.8L591.3,243.4 M431.2,282.4l5-1.9c1.5,4.6,3,9.2,4.6,13.7c0.5,1.4,1,2.9,1.6,4.3l-4.4,3
	C435.8,295.2,433.5,288.8,431.2,282.4 M557,342c1,1.6,1.9,3.2,2.9,4.8c-5.3,11-11.5,22.2-11.7,34.8c-0.2,14.7,7.5,27.8,13.2,40.9
	c-1.6,1.1-3.2,2.2-4.8,3.3c-4.3-7.9-8-16.1-11.1-24.6c-3.8-9.9-4.3-20.8-1.2-30.9C547.3,360.4,552.5,351.4,557,342L557,342z"/>
<path class="st101" d="M510.1,262c11.5-0.1,21.7-7.8,26.7-17.8l4.7,2c-2.8,7.4-9.1,12.9-15.7,17c-10.7,5.4-23.4,5.4-34-0.2
	c-5.6-3.5-11-7.9-14-14c1.5-0.8,3.1-1.6,4.6-2.3C488.1,256.2,498.9,262.8,510.1,262L510.1,262z"/>
<path class="st102" d="M490.9,277.9c1.3-4.9-1-10.1,1-14.9c10.6,5.5,23.3,5.6,34,0.2c1.5,5.4,0.1,10.9,0.6,16.4
	c0.5,5.9-0.2,11.9,0.1,17.9c-0.1,3.3,0.7,8.1-3.2,9.4c-1.3,5.2-7.6,7-8.7,12.3c-2.5,0.5-5.3,0.1-6.2-2.7c-3-0.6-6-1.9-7.2-4.9
	c-1.5-0.4-3-0.7-4.5-1.1c-0.1-1-0.2-2-0.4-3c-1.5-1.4-4.7-1.3-5-3.8c-0.7-5,0-10-0.3-14.9C491.1,285.1,490.2,281.5,490.9,277.9
	L490.9,277.9z"/>
<path class="st103" d="M443.3,269.1c4.9,22.4,11.9,44.4,20.7,65.6c5.9,14.9,13.8,29.2,17.1,45l-5.7-2.1c-2.1-13-9.1-24.5-14.7-36.2
	c-3.7-7.7-7.2-15.5-10.5-23.3c-2.7-6.5-5.3-13.1-7.8-19.7c-0.5-1.4-1.1-2.9-1.6-4.3l1.9-1.2c0.9-3.7-0.2-7.6,0.3-11.4
	C443.6,277.4,441.8,273.2,443.3,269.1L443.3,269.1z"/>
<path class="st104" d="M653.6,269.6l7.5,0.8c-0.7,10.5-1.7,21-3.3,31.4c-0.4,1.9-1,3.7-1.8,5.4l-5.2-1.9l-0.9-0.3
	C651.3,293.2,652.8,281.5,653.6,269.6L653.6,269.6z"/>
<path class="st105" d="M345.3,271.9l2.8-0.2c-0.4,1.3-0.5,2.7-0.3,4c1.1,11.7,2,23.6,4.6,35.1l0.2,0.5l-2.5,0.1
	C347.6,298.4,346,285.1,345.3,271.9L345.3,271.9z"/>
<path class="st106" d="M348.2,271.7l1.7-0.2c0.2,10.8,1.9,21.5,3.3,32.2c0.4,2.2,1,4.4,1.8,6.5l-2.5,0.6
	c-2.6-11.5-3.5-23.4-4.6-35.1C347.7,274.4,347.8,273,348.2,271.7L348.2,271.7z"/>
<path class="st107" d="M349.8,271.5c2.4-0.2,4.7-0.5,7.1-0.7c1.1,2.5,1.6,5.2,1.5,7.9c0.2,9.7,1.9,19.3,3.8,28.8
	c-2.5,0.9-4.9,1.9-7.3,2.7c-0.8-2.1-1.4-4.3-1.8-6.5C351.7,293,350.1,282.3,349.8,271.5L349.8,271.5z"/>
<path class="st108" d="M442.5,298.5c2.5,6.6,5.1,13.2,7.8,19.7c-1.2,1.3-2.4,2.7-3.6,4c-17,18.4-33.8,36.9-50.7,55.2
	c-1.3,1.4-2.6,2.9-3.9,4.3c-3.5-5-6.7-10.2-9.5-15.6c-4.5-6.4-5.6-14.5-10.4-20.6c0.7-0.5,1.4-0.9,2.1-1.4c1.9-1.3,3.8-2.5,5.7-3.8
	c19.3-12.9,38.6-25.8,58-38.7L442.5,298.5L442.5,298.5z"/>
<path class="st109" d="M363.8,306.9l5-1.8c3.5,11.8,4.9,24.4,11.2,35.1c-1.9,1.3-3.8,2.6-5.7,3.8
	C369.3,332.2,365.7,319.7,363.8,306.9L363.8,306.9z"/>
<path class="st110" d="M650.8,305.4l5.2,1.9c2.7,1,5.5,2,8.2,3l0.2,0.1c-2.6,13.6-6.4,27-11.5,39.9l-5.5-3.6
	c-2.1-1.4-4.2-2.9-6.4-4.3c1.2-5.4,3.7-10.5,4.8-15.9c0.8-3.3,2.9-6.2,3-9.6C649.1,312.9,649.8,309.1,650.8,305.4L650.8,305.4z"/>
<path class="st111" d="M362.3,307.5l1.6-0.6c1.9,12.8,5.5,25.3,10.5,37.2c-0.7,0.5-1.4,0.9-2.1,1.4c-2.7,1.8-5.5,3.7-8.2,5.5
	c-5.4-12.7-8.1-26.3-11.5-39.6l-0.2-0.5l2.5-0.6C357.4,309.3,359.8,308.3,362.3,307.5L362.3,307.5z"/>
<path class="st112" d="M350.1,311.5l2.5-0.1c3.4,13.3,6.1,26.9,11.5,39.6c-0.9,0.6-1.7,1.1-2.6,1.7
	C356.5,339.3,352.7,325.6,350.1,311.5L350.1,311.5z"/>
<path class="st113" d="M535,327.5c3.2-4.2,7.1-8,8.9-13.1l1.6,1.4c-5.8,19.9-12.5,39.5-16,60c-0.4-1.3-0.7-2.6-1.1-3.9
	c-4.5,1.8-7.9,5.4-12.6,6.7c-1.8,0-3.5,0.8-5.2,1.2c-2.3-0.3-4-2.3-6.3-2.5c-6-0.7-11.3-4-16.7-6.5c-3.5-17-8.9-33.6-13.7-50.3
	c2.5,2,4.9,4.1,6.4,7c8.9,9.9,20.2,18.1,33.2,21.5C521.7,343,528.5,335.4,535,327.5L535,327.5z"/>
<path class="st114" d="M364,351c2.7-1.8,5.5-3.7,8.2-5.5c4.8,6.2,5.9,14.2,10.4,20.6c2.8,5.4,5.9,10.7,9.5,15.6l-2.3,2.5
	c-1.4,1.5-2.8,3-4.2,4.5c-1.1,1.2-2.3,2.5-3.4,3.7c-8.5-12.4-15.5-25.7-20.7-39.8C362.3,352.1,363.2,351.6,364,351L364,351z"/>
<path class="st115" d="M647.4,346.5l5.5,3.6l1.4,0.9c-3.7,7.9-7,15.9-11.2,23.5c-2.7,5.5-6.5,10.3-9.3,15.8l-1.4-1.5
	c-1.5-1.6-2.9-3.2-4.3-4.8C636.1,372.5,642.7,359.9,647.4,346.5L647.4,346.5z"/>
<path class="st116" d="M654.2,351.1l2.4,1.6c-5.2,14.1-12.2,27.6-20.8,40l-2.1-2.3c2.7-5.5,6.5-10.3,9.3-15.8
	C647.2,367,650.6,359,654.2,351.1L654.2,351.1z"/>
<path class="st117" d="M539,371.5c1-0.6,2-1.1,3-1.7l2.1,0.5c-3.1,10.1-2.7,21,1.2,30.9c-2.5,0.1-5.1,0.4-7.5,1
	C534.6,392.3,535.7,381.4,539,371.5L539,371.5z"/>
<path class="st118" d="M487.7,370.8c5.4,2.5,10.7,5.8,16.7,6.5c2.3,0.3,4,2.3,6.3,2.5c1.7-0.4,3.4-1.2,5.2-1.2
	c4.7-1.3,8.1-4.9,12.6-6.7c0.4,1.3,0.8,2.6,1.1,3.9c-1.4,8.8-1.4,17.8,0,26.6c1.8,8.9,4.4,17.6,7.8,26.1c-3,0.6-6,0.9-9,0.9
	l-1.4,1.4c-0.4-1.7-0.9-3.4-1.4-5.1c-1-3.3-2-6.6-3.1-9.9c-2.1-5.8-4.4-12-9.4-15.9c-2.8-2.3-7.2-1.4-9.5,1.2c-3.7,3.9-5.8,9-7.7,14
	c-1.6,4.6-2.9,9.2-3.7,14l-0.9,0.9l0.2-0.7c-3.5,1.8-7.4-1.1-11,0.4c3.5-8.7,6.2-17.7,8.2-26.9C490.5,392.1,489.7,381.3,487.7,370.8
	L487.7,370.8z"/>
<path class="st119" d="M392.1,381.8c1.3-1.4,2.6-2.9,3.9-4.3c0.2,3.9,4.5,5.2,5.8,8.6c6.8,7.8,13.9,16,23.2,20.9l-1.5,2.8
	c-0.9,1.6-1.7,3.1-2.6,4.7c-0.2,0.4-0.6,1.1-0.8,1.4c-2.6-1.2-5.1-2.8-7.2-4.7c-4.8-5.2-10.6-9.4-14.9-15.1
	c-2.8-3.8-7.4-6.7-8.2-11.6L392.1,381.8L392.1,381.8z"/>
<path class="st120" d="M475.5,377.7l5.7,2.1c1.3,6.5,1.2,13.3-0.3,19.8c-2.3,10.1-5.8,20-10.2,29.4c-3.6,0.2-7.3,0.3-10.9,0.5
	c0.8-1.6,1.7-3.1,2.5-4.7C469.4,410.1,477.9,394.6,475.5,377.7L475.5,377.7z"/>
<path class="st121" d="M632.4,388.8l1.4,1.5l2.1,2.3c-8.8,12.9-19.8,24.2-32.5,33.4l-1.5-2.5c-0.4-0.7-0.8-1.4-1.2-2.2l-0.2-0.3
	c5.6-3.2,10.1-7.9,15.1-12C621.6,402.7,627.7,396.2,632.4,388.8z"/>
<path class="st122" d="M503.5,401c2.3-2.6,6.7-3.5,9.5-1.2c5,3.9,7.2,10.1,9.4,15.9c-5.4,1.4-10.8-0.4-16.2,0.1
	c-3.5,0.4-7,0.1-10.3-0.8C497.8,410,499.8,404.9,503.5,401L503.5,401z"/>
<path class="st123" d="M537.8,402.2c2.5-0.6,5-0.9,7.5-1c3.1,8.4,6.9,16.7,11.1,24.6c0.9,1.7,1.8,3.5,2.8,5.2c0.4,0.7,0.8,1.3,1.1,2
	c-3.4,0.3-6.7,0.8-10,1.5C544.7,424.4,540.9,413.4,537.8,402.2L537.8,402.2z"/>
<path class="st124" d="M424.9,406.9l0.9-1.7c5,3.2,10,6.5,15.3,9.4c5.4,1.9,10.3,5.1,15.6,7.2c-0.2,0.3-0.5,1-0.7,1.3l-1.9,3.7
	c-10.8-4.6-22.1-9-30.8-17.1L424.9,406.9L424.9,406.9z"/>
<path class="st125" d="M572.9,417.6c6.4-3.9,13.1-7.3,19.4-11.4c1.1,2,2.2,4,3.3,6c0.9,1.6,1.7,3.2,2.6,4.8
	c-9.7,6.5-20,12-30.7,16.5c-0.9-1.6-1.9-3.2-2.7-4.9c-1.1-2.1-2.1-4.2-3-6.4C565,419.5,569.5,419.7,572.9,417.6L572.9,417.6z"/>
<path class="st126" d="M420.8,414.4c0.9-1.6,1.7-3.1,2.6-4.7c8.7,8.1,20,12.5,30.8,17.1l-0.9,1.6c-0.5,1-1.1,2-1.6,3
	c-4.6-2.8-9.9-4.1-14.5-6.8C431.5,421.5,425.8,418.4,420.8,414.4L420.8,414.4z"/>
<path class="st127" d="M420,415.8c0.2-0.4,0.6-1.1,0.8-1.4c5,4.1,10.7,7.1,16.3,10.3c4.7,2.6,10,4,14.5,6.8
	c-1.4,2.7-2.9,5.3-4.5,7.9c-9-3-17.1-7.9-25.2-12.7c-2.1-1.2-3.9-2.8-5.3-4.7C417.8,419.9,418.9,417.8,420,415.8L420,415.8z"/>
<path class="st128" d="M492.1,428.9c0.9-4.8,2.1-9.4,3.7-14c3.4,0.9,6.9,1.2,10.3,0.8c5.4-0.5,10.9,1.2,16.2-0.1
	c1.2,3.2,2.2,6.6,3.1,9.9c-0.4,1.3-0.2,3.8-2.3,3.2c-4.6-0.4-9.1,0.3-13.7-0.1C503.6,428.8,497.8,427.9,492.1,428.9L492.1,428.9z"/>
<path class="st129" d="M567.6,433.5c10.7-4.5,21-10,30.7-16.5c0.8,1.4,1.5,2.7,2.3,4.1l0.2,0.3c-10,6.1-20,12.4-31,16.4
	C569,436.4,568.3,434.9,567.6,433.5L567.6,433.5z"/>
<path class="st130" d="M416.5,421.8l0.2,0.2c1.4,1.9,3.2,3.5,5.3,4.7c8.1,4.8,16.2,9.7,25.2,12.7c-0.4,1.2-0.9,2.5-1.3,3.7
	c-11.1-4.3-21.6-10-31.2-17.1C415.3,424.6,415.9,423.2,416.5,421.8L416.5,421.8z"/>
<path class="st131" d="M600.7,421.4c0.4,0.7,0.8,1.4,1.2,2.2c-9.8,6.5-20,12.4-31.1,16.5l-0.5-0.9l-0.6-1.4
	C580.7,433.8,590.7,427.5,600.7,421.4L600.7,421.4z"/>
<path class="st132" d="M456,423.1c2,0.5,4.1,1,6.1,1.5c-0.8,1.6-1.6,3.1-2.5,4.7l-0.7,1.2c-1.8-0.9-3.8-1.6-5.7-2.2l0.9-1.6
	L456,423.1L456,423.1z"/>
<path class="st133" d="M561.3,422.6l0.5-0.3c1,2.2,1.9,4.3,3,6.4c-1.8,0.9-3.7,1.7-5.6,2.4c-0.9-1.7-1.9-3.4-2.8-5.2
	C558.1,424.7,559.7,423.6,561.3,422.6L561.3,422.6z"/>
<path class="st134" d="M570.9,440.1c11-4.1,21.2-10.1,31.1-16.5l1.5,2.5c-9.4,6.7-19.5,12.3-30.3,16.6
	C572.3,441.8,571.6,440.9,570.9,440.1L570.9,440.1z"/>
<path class="st135" d="M525.5,425.5c0.5,1.7,0.9,3.4,1.4,5.1c1,4,1.6,8,2.4,12c0.4,2.5,0.6,5,0.7,7.5c-9.5,1.6-19.2,1.1-28.8,1.1
	c-4.3-0.2-8.6-0.6-12.8-1.2c0.3-6.8,1.3-13.6,2.9-20.2l0.9-0.9c5.8-1.1,11.6-0.1,17.4-0.3c4.6,0.5,9.1-0.2,13.7,0.1
	C525.3,429.3,525.1,426.8,525.5,425.5L525.5,425.5z"/>
<path class="st136" d="M453.3,428.5c2,0.6,3.9,1.3,5.7,2.2c-2.1,4-4.6,7.7-6.3,11.9c-1.7-1.3-3.5-2.3-5.5-3.1c1.5-2.6,3-5.3,4.5-7.9
	C452.2,430.5,452.7,429.5,453.3,428.5L453.3,428.5z"/>
<path class="st137" d="M480.3,429.6c3.7-1.5,7.5,1.4,11-0.4l-0.2,0.7c-1.6,6.6-2.5,13.4-2.9,20.2c4.2,0.6,8.5,1,12.8,1.2
	c9.6-0.1,19.3,0.4,28.8-1.1c-0.1-2.5-0.3-5-0.7-7.5c4.9,0,9.9,0,14.8,0c2.2,3.7,3.6,7.8,4.3,12c-26,4.9-52.6,4.9-78.6,0
	C470.7,445.4,477.4,438.3,480.3,429.6L480.3,429.6z"/>
<path class="st138" d="M528.3,429.2c3,0,6-0.3,9-0.9c1.9,4.9,4.2,9.7,6.8,14.3c-5,0-9.9,0-14.8,0c-0.7-4-1.4-8.1-2.4-12L528.3,429.2
	L528.3,429.2z"/>
<path class="st139" d="M564.8,428.6c0.9,1.6,1.8,3.2,2.7,4.9c0.8,1.4,1.5,2.8,2.1,4.2l0.6,1.4l-5.7,1.9c-1.3-2.7-2.8-5.3-4.2-7.9
	c-0.4-0.7-0.8-1.3-1.1-2C561.1,430.4,563,429.6,564.8,428.6L564.8,428.6z"/>
<path class="st140" d="M447.2,439.4c2,0.7,3.9,1.8,5.5,3.1c-0.2,0.7-0.6,2.1-0.8,2.8c-2-0.7-4-1.4-6-2.1
	C446.3,441.8,446.7,440.6,447.2,439.4z"/>
<path class="st141" d="M564.6,441l5.7-1.8l0.5,0.9c0.7,0.9,1.5,1.7,2.3,2.6c-2.2,0.9-4.4,1.7-6.7,2.5
	C565.9,443.8,565.3,442.4,564.6,441L564.6,441z"/>
<rect x="113.8" class="st142" width="800" height="800"/>
</svg>
